<?xml version="1.0" encoding="UTF-8"?>
<!DOCTYPE svg PUBLIC "-//W3C//DTD SVG 1.1//EN" "http://www.w3.org/Graphics/SVG/1.1/DTD/svg11.dtd">
<!-- Creator: CorelDRAW -->
<svg xmlns="http://www.w3.org/2000/svg" xml:space="preserve" width="2798px" height="1879px" version="1.1" style="shape-rendering:geometricPrecision; text-rendering:geometricPrecision; image-rendering:optimizeQuality; fill-rule:evenodd; clip-rule:evenodd"
viewBox="0 0 400.22 268.81"
 xmlns:xlink="http://www.w3.org/1999/xlink"
 xmlns:xodm="http://www.corel.com/coreldraw/odm/2003">
 <defs>
  <style type="text/css">
   <![CDATA[
    .fil4 {fill:#4E9BD4}
    .fil7 {fill:#263138}
    .fil0 {fill:#DFDFDF}
    .fil10 {fill:#4E9BD4;fill-rule:nonzero}
    .fil3 {fill:#263138;fill-rule:nonzero}
    .fil15 {fill:#263138;fill-rule:nonzero}
    .fil13 {fill:#445964;fill-rule:nonzero}
    .fil19 {fill:#AA6450;fill-rule:nonzero}
    .fil18 {fill:#B68775;fill-rule:nonzero}
    .fil1 {fill:#DFDFDF;fill-rule:nonzero}
    .fil20 {fill:#EBEBEB;fill-rule:nonzero}
    .fil2 {fill:#F4F4F4;fill-rule:nonzero}
    .fil8 {fill:#F9F9F9;fill-rule:nonzero}
    .fil9 {fill:white;fill-rule:nonzero}
    .fil11 {fill:black;fill-rule:nonzero;fill-opacity:0.301961}
    .fil12 {fill:white;fill-rule:nonzero;fill-opacity:0.301961}
    .fil6 {fill:white;fill-opacity:0.400000}
    .fil14 {fill:white;fill-rule:nonzero;fill-opacity:0.501961}
    .fil16 {fill:#4E9BD4;fill-rule:nonzero;fill-opacity:0.600000}
    .fil17 {fill:white;fill-rule:nonzero;fill-opacity:0.600000}
    .fil5 {fill:white;fill-opacity:0.800000}
   ]]>
  </style>
 </defs>
 <g id="Layer_x0020_1">
  <metadata id="CorelCorpID_0Corel-Layer"/>
  <g id="_105553414597280">
   <g>
    <g>
     <path class="fil0" d="M147.45 201.35c2.02,0.25 3.96,0.78 5.8,1.53l4.26 -3.57 7.31 5.57 -2.3 5.06c1.22,1.56 2.24,3.3 3.02,5.18l5.53 0.48 1.24 9.11 -5.21 1.95c-0.25,2.01 -0.77,3.96 -1.53,5.79l3.57 4.26 -5.56 7.32 -5.06 -2.31c-1.57,1.22 -3.3,2.24 -5.18,3.02l-0.49 5.54 -9.11 1.23 -1.94 -5.2c-2.02,-0.25 -3.96,-0.77 -5.8,-1.53l-4.26 3.57 -7.31 -5.57 2.3 -5.06c-1.22,-1.56 -2.24,-3.3 -3.02,-5.17l-5.53 -0.49 -1.24 -9.11 5.21 -1.95c0.25,-2.01 0.77,-3.96 1.53,-5.79l-3.57 -4.26 5.57 -7.32 5.05 2.31c1.57,-1.22 3.3,-2.24 5.18,-3.02l0.49 -5.54 9.11 -1.23 1.94 5.2zm-2.73 12.57l0 0c-6.27,0.22 -10.72,6.07 -9.27,12.17 1.08,4.52 5.28,7.71 9.91,7.54 6.27,-0.23 10.72,-6.07 9.27,-12.17 -1.07,-4.51 -5.27,-7.71 -9.91,-7.54z"/>
    </g>
   </g>
  </g>
  <path class="fil1" d="M50.62 67.87l0 -26.47c14.52,0 26.48,11.95 26.48,26.47 0,14.53 -11.96,26.48 -26.48,26.48 -14.29,0 -26.14,-11.58 -26.47,-25.87l26.47 -0.61z"/>
  <path class="fil2" d="M44.17 60.74l-26.48 0.59c0,-6.89 2.69,-14.12 7.5,-19.06 4.81,-4.94 11.67,-7.81 18.56,-8l0.42 26.47z"/>
  <g id="_105553414594560">
   <g>
    <g>
     <path class="fil0" d="M341.99 5.2c2.02,0.26 3.96,0.78 5.8,1.53l4.26 -3.57 7.31 5.57 -2.3 5.06c1.22,1.56 2.24,3.3 3.02,5.18l5.53 0.48 1.24 9.11 -5.21 1.95c-0.25,2.01 -0.77,3.96 -1.53,5.79l3.57 4.26 -5.56 7.32 -5.06 -2.3c-1.57,1.21 -3.3,2.23 -5.18,3.01l-0.49 5.54 -9.11 1.23 -1.94 -5.2c-2.02,-0.25 -3.96,-0.77 -5.8,-1.53l-4.26 3.57 -7.31 -5.57 2.3 -5.06c-1.22,-1.56 -2.24,-3.3 -3.02,-5.17l-5.53 -0.49 -1.24 -9.11 5.21 -1.95c0.25,-2.01 0.77,-3.96 1.53,-5.79l-3.57 -4.26 5.57 -7.32 5.05 2.31c1.57,-1.22 3.31,-2.24 5.18,-3.02l0.49 -5.53 9.11 -1.24 1.94 5.2zm-2.73 12.57l0 0c-6.26,0.22 -10.72,6.07 -9.27,12.17 1.08,4.52 5.28,7.71 9.91,7.54 6.27,-0.22 10.72,-6.07 9.27,-12.17 -1.07,-4.51 -5.27,-7.71 -9.91,-7.54z"/>
    </g>
   </g>
  </g>
  <path class="fil3" d="M400.22 259.58c0,0.09 -89.6,0.16 -200.1,0.16 -110.54,0 -200.12,-0.07 -200.12,-0.16 0,-0.08 89.58,-0.15 200.12,-0.15 110.5,0 200.1,0.07 200.1,0.15z"/>
  <g id="_105553414596288">
   <path class="fil4" d="M65.73 131.8c1.69,0.88 3.22,1.97 4.58,3.23l4.89 -1.74 4.6 7.25 -3.66 3.68c0.55,1.77 0.88,3.62 0.96,5.52l4.68 2.22 -1.88 8.38 -5.19 0.01c-0.87,1.69 -1.96,3.22 -3.22,4.58l1.74 4.89 -7.25 4.6 -3.68 -3.67c-1.77,0.56 -3.62,0.89 -5.52,0.96l-2.22 4.69 -8.39 -1.88 -0.01 -5.19c-1.68,-0.87 -3.21,-1.96 -4.57,-3.22l-4.89 1.74 -4.6 -7.26 3.66 -3.67c-0.55,-1.77 -0.88,-3.62 -0.96,-5.52l-4.68 -2.23 1.88 -8.38 5.18 -0.01c0.88,-1.68 1.97,-3.22 3.23,-4.57l-1.74 -4.9 7.25 -4.59 3.68 3.66c1.77,-0.56 3.62,-0.88 5.52,-0.96l2.22 -4.69 8.38 1.88 0.01 5.19zm-7.38 9.86l0 0c-4.97,-1.11 -9.9,2.01 -11.01,6.98 -1.11,4.96 2.01,9.89 6.97,11 4.97,1.12 9.9,-2.01 11.01,-6.97 1.11,-4.97 -2.01,-9.89 -6.97,-11.01z"/>
  </g>
  <g id="_105553414594752">
   <path class="fil5" d="M65.73 131.8c1.69,0.88 3.22,1.97 4.58,3.23l4.89 -1.74 4.6 7.25 -3.66 3.68c0.55,1.77 0.88,3.62 0.96,5.52l4.68 2.22 -1.88 8.38 -5.19 0.01c-0.87,1.69 -1.96,3.22 -3.22,4.58l1.74 4.89 -7.25 4.6 -3.68 -3.67c-1.77,0.56 -3.62,0.89 -5.52,0.96l-2.22 4.69 -8.39 -1.88 -0.01 -5.19c-1.68,-0.87 -3.21,-1.96 -4.57,-3.22l-4.89 1.74 -4.6 -7.26 3.66 -3.67c-0.55,-1.77 -0.88,-3.62 -0.96,-5.52l-4.68 -2.23 1.88 -8.38 5.18 -0.01c0.88,-1.68 1.97,-3.22 3.23,-4.57l-1.74 -4.9 7.25 -4.59 3.68 3.66c1.77,-0.56 3.62,-0.88 5.52,-0.96l2.22 -4.69 8.38 1.88 0.01 5.19zm-7.38 9.86l0 0c-4.97,-1.11 -9.9,2.01 -11.01,6.98 -1.11,4.96 2.01,9.89 6.97,11 4.97,1.12 9.9,-2.01 11.01,-6.97 1.11,-4.97 -2.01,-9.89 -6.97,-11.01z"/>
  </g>
  <g id="_105553414591424">
   <g>
    <path class="fil3" d="M73.18 207.13c0,0 0.76,0.06 1.97,0.62 1.2,0.56 2.89,1.77 3.93,3.98 0.51,1.09 0.86,2.41 0.8,3.83 -0.06,1.42 -0.44,2.96 -1.32,4.31 -0.42,0.68 -0.96,1.31 -1.6,1.86 -0.63,0.56 -1.36,1.03 -2.17,1.38 -1.59,0.72 -3.49,0.91 -5.3,0.52 -1.81,-0.42 -3.45,-1.4 -4.58,-2.74 -0.58,-0.65 -1.04,-1.39 -1.37,-2.17 -0.34,-0.77 -0.57,-1.57 -0.66,-2.37 -0.22,-1.6 0.1,-3.15 0.65,-4.45 0.56,-1.32 1.44,-2.36 2.36,-3.13 1.89,-1.55 3.93,-1.93 5.25,-1.92 1.34,0.01 2.04,0.28 2.04,0.28 0,0.06 -0.72,-0.14 -2.04,-0.09 -1.28,0.05 -3.25,0.47 -5.03,1.99 -0.87,0.75 -1.7,1.76 -2.22,3.02 -0.51,1.25 -0.79,2.73 -0.57,4.25 0.09,0.75 0.31,1.51 0.63,2.24 0.32,0.73 0.76,1.43 1.31,2.04 1.08,1.27 2.62,2.18 4.33,2.58 1.72,0.37 3.5,0.2 5.01,-0.48 0.77,-0.32 1.46,-0.77 2.06,-1.29 0.61,-0.52 1.13,-1.11 1.53,-1.76 0.85,-1.27 1.22,-2.73 1.3,-4.08 0.06,-1.36 -0.25,-2.63 -0.72,-3.68 -0.96,-2.14 -2.56,-3.36 -3.7,-3.95 -1.16,-0.61 -1.9,-0.73 -1.89,-0.79z"/>
   </g>
  </g>
  <g id="_105553414596672">
   <g>
    <path class="fil3" d="M79.87 198.22c-0.01,0 -0.01,-0.1 -0.02,-0.3 -0.01,-0.22 -0.01,-0.51 -0.02,-0.89 -0.01,-0.81 -0.03,-1.98 -0.05,-3.51l0.06 0.08c-1.94,-0.43 -4.5,-0.99 -7.59,-1.66l0.14 -0.07c-0.61,1.29 -1.28,2.72 -2,4.25l-0.04 0.08 -0.08 0c-1.58,0.07 -3.26,0.34 -4.95,0.88l-0.09 0.03 -0.07 -0.07c-1.04,-1.03 -2.16,-2.14 -3.33,-3.3l0.21 0.02c-2.07,1.31 -4.26,2.71 -6.55,4.17l0.07 -0.22c0.49,1.37 1.03,2.88 1.59,4.42l0.04 0.11 -0.09 0.09c-1.05,1.15 -2.07,2.55 -2.87,4.1l-0.06 0.11 -0.13 0c-1.45,0.01 -3.06,0.02 -4.69,0.02l0.21 -0.17c-0.53,2.39 -1.11,4.95 -1.69,7.59l-0.13 -0.25c1.33,0.62 2.78,1.31 4.25,2.01l0.12 0.06 0.01 0.13c0.06,1.57 0.33,3.28 0.86,4.93l0.04 0.13 -0.1 0.1c-1.04,1.05 -2.17,2.18 -3.31,3.33l0.03 -0.29c1.32,2.08 2.73,4.31 4.16,6.56l-0.28 -0.09c1.4,-0.5 2.91,-1.04 4.42,-1.58l0.14 -0.05 0.11 0.1c1.16,1.08 2.56,2.09 4.08,2.88l0 0 0 0c0.06,0.09 -0.12,-0.21 0.13,0.21l0 0.01 0 0.01 0 0.01 0 0.04 0 0.08 0 0.14 0.01 0.3 0 0.59 0 1.18c0,0.78 0,1.56 0,2.34l-0.18 -0.24c2.56,0.58 5.09,1.15 7.58,1.71l-0.27 0.12c0.68,-1.42 1.35,-2.83 2.02,-4.23l0.06 -0.13 0.14 -0.01c1.69,-0.06 3.35,-0.36 4.93,-0.85l0.13 -0.04 0.1 0.09c1.13,1.13 2.23,2.23 3.33,3.32l-0.29 -0.03c2.25,-1.42 4.44,-2.8 6.57,-4.15l-0.09 0.26c-0.53,-1.5 -1.05,-2.98 -1.57,-4.43l-0.04 -0.12 0.09 -0.1c1.16,-1.25 2.13,-2.63 2.89,-4.09l0.06 -0.11 0.12 0c1.61,0 3.17,0 4.69,0l-0.19 0.16c0.6,-2.67 1.17,-5.19 1.72,-7.58l0.1 0.2c-1.49,-0.71 -2.89,-1.37 -4.24,-2.02l-0.09 -0.04 -0.01 -0.11c-0.06,-1.79 -0.37,-3.44 -0.84,-4.95l-0.03 -0.09 0.06 -0.06c1.21,-1.21 2.3,-2.3 3.33,-3.32l-0.02 0.17c-1.6,-2.54 -2.96,-4.72 -4.13,-6.58l0.13 0.05c-1.77,0.62 -3.23,1.12 -4.44,1.54l-0.04 0.02 -0.03 -0.03c-1.25,-1.17 -2.31,-1.88 -3.02,-2.32 -0.35,-0.21 -0.61,-0.37 -0.81,-0.49 -0.18,-0.11 -0.27,-0.16 -0.26,-0.16 0,-0.01 0.1,0.04 0.28,0.12 0.19,0.1 0.47,0.24 0.83,0.46 0.73,0.43 1.81,1.12 3.08,2.27l-0.08 -0.01c1.21,-0.44 2.65,-0.96 4.41,-1.6l0.08 -0.03 0.05 0.07c1.18,1.85 2.57,4.01 4.19,6.54l0.06 0.1 -0.08 0.08c-1.02,1.03 -2.1,2.12 -3.3,3.34l0.04 -0.16c0.48,1.53 0.81,3.21 0.89,5.03l-0.1 -0.15c1.35,0.64 2.75,1.3 4.24,2l0.14 0.07 -0.04 0.14c-0.53,2.4 -1.09,4.92 -1.68,7.58l-0.04 0.16 -0.16 0c-1.52,0 -3.08,0.01 -4.69,0.02l0.18 -0.11c-0.77,1.48 -1.75,2.9 -2.94,4.19l0.05 -0.22c0.51,1.45 1.04,2.92 1.58,4.42l0.05 0.17 -0.14 0.09c-2.14,1.35 -4.32,2.74 -6.56,4.16l-0.15 0.1 -0.13 -0.13c-1.1,-1.09 -2.21,-2.19 -3.33,-3.31l0.23 0.06c-1.62,0.51 -3.32,0.81 -5.05,0.88l0.2 -0.13c-0.66,1.4 -1.33,2.81 -2.01,4.24l-0.08 0.17 -0.19 -0.04c-2.49,-0.56 -5.02,-1.13 -7.58,-1.7l-0.18 -0.04 0 -0.19c-0.01,-0.78 -0.01,-1.56 -0.01,-2.34l0 -1.18 0 -0.59 0 -0.3 0 -0.14 0 -0.08 0 -0.03 0 -0.02 0 -0.01 0 -0.01c0.25,0.43 0.07,0.12 0.12,0.21l0 0 0 0c-1.56,-0.81 -2.99,-1.84 -4.19,-2.95l0.25 0.05c-1.52,0.54 -3.03,1.08 -4.43,1.57l-0.18 0.07 -0.1 -0.16c-1.43,-2.26 -2.84,-4.49 -4.15,-6.57l-0.1 -0.15 0.13 -0.14c1.14,-1.14 2.27,-2.28 3.31,-3.32l-0.05 0.23c-0.54,-1.7 -0.82,-3.44 -0.88,-5.05l0.13 0.2c-1.47,-0.7 -2.92,-1.39 -4.24,-2.02l-0.16 -0.08 0.04 -0.17c0.6,-2.63 1.17,-5.2 1.71,-7.58l0.04 -0.17 0.17 0c1.63,0 3.24,0 4.69,0l-0.18 0.11c0.83,-1.59 1.87,-3.01 2.95,-4.18l-0.04 0.2c-0.54,-1.54 -1.08,-3.05 -1.56,-4.42l-0.05 -0.15 0.12 -0.08c2.31,-1.45 4.51,-2.83 6.57,-4.14l0.12 -0.07 0.1 0.1c1.16,1.16 2.28,2.28 3.31,3.32l-0.15 -0.04c1.72,-0.54 3.43,-0.8 5.03,-0.86l-0.12 0.08c0.73,-1.52 1.41,-2.95 2.03,-4.23l0.04 -0.09 0.09 0.02c3.09,0.71 5.64,1.3 7.57,1.75l0.06 0.01 0 0.06c-0.01,1.51 -0.02,2.68 -0.03,3.48 -0.01,0.39 -0.01,0.68 -0.02,0.9 0,0.21 -0.01,0.31 -0.01,0.32z"/>
   </g>
  </g>
  <g id="_105553414592224">
   <path class="fil4" d="M35.43 181.17c0.98,0.51 1.87,1.14 2.67,1.88l2.84 -1.02 2.68 4.23 -2.13 2.14c0.32,1.03 0.51,2.1 0.56,3.21l2.72 1.29 -1.09 4.88 -3.02 0.01c-0.51,0.98 -1.14,1.87 -1.88,2.66l1.02 2.85 -4.23 2.68 -2.14 -2.14c-1.03,0.33 -2.11,0.52 -3.21,0.56l-1.3 2.73 -4.87 -1.09 -0.01 -3.02c-0.98,-0.51 -1.87,-1.15 -2.66,-1.88l-2.85 1.01 -2.68 -4.22 2.13 -2.14c-0.32,-1.03 -0.51,-2.11 -0.55,-3.21l-2.73 -1.3 1.09 -4.88 3.02 0c0.51,-0.98 1.15,-1.88 1.88,-2.67l-1.01 -2.85 4.22 -2.67 2.14 2.13c1.03,-0.32 2.11,-0.51 3.21,-0.56l1.3 -2.73 4.88 1.1 0 3.02zm-4.3 5.74l0 0c-2.89,-0.65 -5.76,1.17 -6.41,4.06 -0.64,2.89 1.17,5.76 4.06,6.41 2.89,0.64 5.76,-1.17 6.41,-4.06 0.65,-2.89 -1.17,-5.76 -4.06,-6.41z"/>
  </g>
  <g id="_105553414598976">
   <path class="fil6" d="M35.43 181.17c0.98,0.51 1.87,1.14 2.67,1.88l2.84 -1.02 2.68 4.23 -2.13 2.14c0.32,1.03 0.51,2.1 0.56,3.21l2.72 1.29 -1.09 4.88 -3.02 0.01c-0.51,0.98 -1.14,1.87 -1.88,2.66l1.02 2.85 -4.23 2.68 -2.14 -2.14c-1.03,0.33 -2.11,0.52 -3.21,0.56l-1.3 2.73 -4.87 -1.09 -0.01 -3.02c-0.98,-0.51 -1.87,-1.15 -2.66,-1.88l-2.85 1.01 -2.68 -4.22 2.13 -2.14c-0.32,-1.03 -0.51,-2.11 -0.55,-3.21l-2.73 -1.3 1.09 -4.88 3.02 0c0.51,-0.98 1.15,-1.88 1.88,-2.67l-1.01 -2.85 4.22 -2.67 2.14 2.13c1.03,-0.32 2.11,-0.51 3.21,-0.56l1.3 -2.73 4.88 1.1 0 3.02zm-4.3 5.74l0 0c-2.89,-0.65 -5.76,1.17 -6.41,4.06 -0.64,2.89 1.17,5.76 4.06,6.41 2.89,0.64 5.76,-1.17 6.41,-4.06 0.65,-2.89 -1.17,-5.76 -4.06,-6.41z"/>
  </g>
  <g id="_105553414597568">
   <g>
    <g>
     <path class="fil7" d="M348.98 96.74c1.38,0.17 2.72,0.53 3.98,1.05l2.92 -2.45 5.02 3.82 -1.58 3.47c0.84,1.07 1.54,2.26 2.07,3.55l3.8 0.34 0.85 6.25 -3.57 1.33c-0.18,1.39 -0.53,2.72 -1.05,3.98l2.45 2.92 -3.82 5.02 -3.47 -1.58c-1.08,0.84 -2.27,1.54 -3.56,2.07l-0.33 3.8 -6.26 0.85 -1.33 -3.57c-1.38,-0.17 -2.72,-0.53 -3.98,-1.05l-2.92 2.45 -5.02 -3.82 1.58 -3.47c-0.84,-1.08 -1.54,-2.27 -2.07,-3.56l-3.8 -0.33 -0.85 -6.25 3.57 -1.34c0.18,-1.38 0.53,-2.72 1.05,-3.98l-2.45 -2.92 3.82 -5.02 3.48 1.58c1.07,-0.83 2.26,-1.53 3.55,-2.07l0.33 -3.8 6.26 -0.85 1.33 3.58zm-1.87 8.62l0 0c-4.3,0.15 -7.36,4.17 -6.37,8.36 0.74,3.09 3.63,5.29 6.81,5.17 4.3,-0.16 7.35,-4.17 6.36,-8.35 -0.74,-3.1 -3.62,-5.3 -6.8,-5.18z"/>
    </g>
   </g>
  </g>
  <g id="_105553414587808">
   <g>
    <g>
     <g>
      <g>
       <path class="fil3" d="M373.47 59.32c0,0 0.71,-0.2 2.02,-0.1 1.29,0.1 3.26,0.64 4.97,2.31 0.84,0.83 1.61,1.93 2.04,3.26 0.43,1.32 0.61,2.86 0.26,4.4 -0.15,0.78 -0.44,1.54 -0.84,2.26 -0.39,0.73 -0.9,1.42 -1.52,2.01 -1.22,1.21 -2.9,2.03 -4.7,2.29 -1.81,0.23 -3.64,-0.11 -5.14,-0.96 -0.76,-0.4 -1.44,-0.92 -2,-1.52 -0.58,-0.59 -1.06,-1.25 -1.41,-1.96 -0.75,-1.39 -0.99,-2.92 -0.93,-4.31 0.07,-1.4 0.52,-2.66 1.1,-3.69 1.21,-2.06 2.96,-3.11 4.17,-3.55 1.24,-0.45 1.98,-0.44 1.98,-0.44 0.01,0.06 -0.72,0.12 -1.91,0.61 -1.16,0.48 -2.83,1.54 -3.95,3.55 -0.54,0.99 -0.96,2.2 -1,3.54 -0.04,1.32 0.2,2.78 0.92,4.09 0.34,0.67 0.8,1.29 1.35,1.85 0.54,0.56 1.18,1.05 1.9,1.43 1.42,0.79 3.15,1.11 4.86,0.9 1.7,-0.25 3.28,-1.02 4.44,-2.16 0.59,-0.56 1.08,-1.2 1.45,-1.89 0.38,-0.68 0.66,-1.41 0.81,-2.14 0.34,-1.46 0.19,-2.92 -0.2,-4.19 -0.41,-1.27 -1.13,-2.33 -1.92,-3.14 -1.61,-1.64 -3.5,-2.21 -4.75,-2.37 -1.28,-0.16 -2,-0.02 -2,-0.08z"/>
      </g>
     </g>
    </g>
   </g>
  </g>
  <g id="_105553414591744">
   <g>
    <g>
     <g>
      <g>
       <path class="fil3" d="M376.57 48.84c0,0.01 -0.04,-0.08 -0.12,-0.26 -0.08,-0.2 -0.18,-0.46 -0.32,-0.81 -0.29,-0.74 -0.7,-1.82 -1.24,-3.21l0.08 0.05c-1.93,0.27 -4.47,0.63 -7.54,1.07l0.1 -0.11c-0.12,1.39 -0.25,2.93 -0.39,4.58l0 0.09 -0.08 0.03c-1.43,0.6 -2.88,1.42 -4.25,2.5l-0.07 0.05 -0.09 -0.04c-1.31,-0.59 -2.72,-1.23 -4.19,-1.89l0.2 -0.05c-1.45,1.91 -2.99,3.94 -4.6,6.07l0 -0.23c0.91,1.09 1.92,2.29 2.96,3.52l0.08 0.09 -0.05 0.11c-0.58,1.41 -1.04,3.04 -1.25,4.75l-0.01 0.12 -0.12 0.04c-1.33,0.51 -2.8,1.06 -4.3,1.62l0.13 -0.22c0.32,2.37 0.67,4.93 1.03,7.54l-0.19 -0.18c1.42,0.12 2.99,0.26 4.58,0.4l0.13 0.01 0.06 0.12c0.59,1.42 1.42,2.9 2.47,4.24l0.09 0.11 -0.06 0.12c-0.6,1.32 -1.25,2.75 -1.91,4.19l-0.07 -0.27c1.92,1.45 3.98,3.02 6.06,4.61l-0.29 0c1.12,-0.93 2.32,-1.94 3.53,-2.96l0.11 -0.09 0.13 0.06c1.44,0.59 3.07,1.04 4.74,1.25l0 0 0 0c0.09,0.07 -0.19,-0.15 0.19,0.15l0 0 0.01 0.01 0 0.02 0.02 0.03 0.02 0.07 0.05 0.14 0.1 0.27 0.21 0.54 0.4 1.08c0.27,0.72 0.54,1.44 0.8,2.15l-0.25 -0.15c2.55,-0.34 5.07,-0.69 7.55,-1.02l-0.2 0.21c0.14,-1.55 0.27,-3.07 0.41,-4.59l0.01 -0.14 0.13 -0.05c1.53,-0.64 2.96,-1.47 4.24,-2.47l0.11 -0.08 0.12 0.06c1.42,0.64 2.81,1.28 4.19,1.91l-0.27 0.07c1.58,-2.07 3.12,-4.09 4.62,-6.06l0 0.27c-1,-1.2 -1.98,-2.38 -2.95,-3.53l-0.08 -0.1 0.05 -0.12c0.64,-1.55 1.06,-3.15 1.26,-4.74l0.01 -0.13 0.12 -0.04c1.48,-0.55 2.91,-1.08 4.31,-1.6l-0.12 0.21c-0.36,-2.66 -0.69,-5.17 -1.01,-7.55l0.16 0.15c-1.61,-0.15 -3.12,-0.28 -4.58,-0.41l-0.1 -0.01 -0.04 -0.1c-0.68,-1.62 -1.52,-3.03 -2.47,-4.26l-0.06 -0.07 0.04 -0.09c0.7,-1.52 1.33,-2.89 1.92,-4.18l0.05 0.17c-2.34,-1.8 -4.34,-3.33 -6.04,-4.64l0.13 0c-1.42,1.17 -2.58,2.13 -3.55,2.93l-0.04 0.03 -0.04 -0.02c-1.54,-0.64 -2.76,-0.93 -3.56,-1.1 -0.39,-0.08 -0.69,-0.13 -0.91,-0.18 -0.21,-0.03 -0.3,-0.05 -0.3,-0.06 0,0 0.11,0.01 0.31,0.03 0.2,0.02 0.51,0.06 0.91,0.13 0.81,0.15 2.04,0.41 3.61,1.04l-0.08 0.01c0.96,-0.81 2.11,-1.78 3.51,-2.98l0.07 -0.05 0.06 0.05c1.72,1.3 3.73,2.81 6.08,4.59l0.09 0.06 -0.04 0.11c-0.59,1.29 -1.21,2.67 -1.9,4.19l-0.02 -0.16c0.97,1.25 1.84,2.67 2.54,4.32l-0.14 -0.1c1.46,0.13 2.97,0.25 4.58,0.39l0.15 0.02 0.02 0.14c0.32,2.38 0.67,4.89 1.03,7.54l0.03 0.16 -0.15 0.05c-1.4,0.53 -2.83,1.07 -4.31,1.62l0.13 -0.16c-0.2,1.63 -0.62,3.27 -1.27,4.85l-0.04 -0.21c0.97,1.15 1.96,2.33 2.96,3.52l0.12 0.13 -0.11 0.14c-1.5,1.97 -3.03,4 -4.61,6.07l-0.1 0.14 -0.17 -0.07c-1.37,-0.63 -2.77,-1.27 -4.19,-1.91l0.24 -0.03c-1.31,1.02 -2.77,1.88 -4.35,2.54l0.15 -0.2c-0.14,1.52 -0.27,3.05 -0.41,4.59l-0.01 0.18 -0.19 0.03c-2.48,0.34 -4.99,0.68 -7.54,1.03l-0.19 0.02 -0.07 -0.17c-0.26,-0.72 -0.53,-1.43 -0.8,-2.15l-0.4 -1.09 -0.21 -0.54 -0.1 -0.27 -0.05 -0.13 -0.02 -0.07 -0.02 -0.04 0 -0.01 0 -0.01 -0.01 -0.01c0.38,0.3 0.11,0.09 0.19,0.15l0 0 0 0c-1.71,-0.21 -3.38,-0.67 -4.86,-1.28l0.24 -0.04c-1.21,1.02 -2.41,2.03 -3.53,2.96l-0.14 0.12 -0.15 -0.11c-2.08,-1.59 -4.14,-3.16 -6.06,-4.62l-0.14 -0.11 0.07 -0.17c0.66,-1.44 1.32,-2.87 1.92,-4.19l0.02 0.24c-1.07,-1.38 -1.92,-2.89 -2.53,-4.35l0.19 0.14c-1.59,-0.14 -3.16,-0.28 -4.58,-0.41l-0.18 -0.01 -0.02 -0.18c-0.35,-2.62 -0.7,-5.17 -1.01,-7.55l-0.03 -0.16 0.16 -0.06c1.5,-0.56 2.98,-1.11 4.31,-1.6l-0.13 0.16c0.22,-1.74 0.69,-3.41 1.29,-4.85l0.03 0.2c-1.03,-1.24 -2.03,-2.44 -2.95,-3.54l-0.09 -0.11 0.09 -0.12c1.62,-2.12 3.17,-4.14 4.62,-6.05l0.08 -0.1 0.13 0.05c1.46,0.68 2.88,1.32 4.18,1.92l-0.16 0.02c1.4,-1.08 2.88,-1.91 4.33,-2.5l-0.08 0.11c0.15,-1.65 0.29,-3.19 0.42,-4.58l0.01 -0.1 0.09 -0.01c3.08,-0.4 5.62,-0.73 7.56,-0.98l0.06 -0.01 0.02 0.06c0.5,1.39 0.89,2.46 1.16,3.21 0.12,0.35 0.22,0.63 0.29,0.83 0.06,0.19 0.09,0.29 0.09,0.29z"/>
      </g>
     </g>
    </g>
   </g>
  </g>
  <polygon class="fil8" points="344.36,215.37 70.18,215.37 70.18,25.84 344.36,25.84 "/>
  <path class="fil3" d="M344.36 215.37c0,-1.02 -0.05,-74.23 -0.13,-189.53l0.13 0.12c-76.03,0.01 -171.18,0.02 -274.15,0.03l-0.03 0 0.16 -0.15c-0.01,67.7 -0.01,132.01 -0.02,189.53l-0.14 -0.14c161.81,0.09 272.92,0.14 274.18,0.14 -1.26,0 -112.37,0.06 -274.18,0.15l-0.14 0 0 -0.15c0,-57.52 -0.01,-121.83 -0.01,-189.53l0 -0.16 0.15 0 0.03 0c102.97,0.01 198.12,0.02 274.15,0.03l0.12 0 0 0.13c-0.07,115.3 -0.12,188.51 -0.12,189.53z"/>
  <polygon class="fil3" points="344.36,36.84 70.18,36.84 70.18,25.84 344.36,25.84 "/>
  <path class="fil9" d="M78.01 31.13c0,0.93 -0.76,1.69 -1.69,1.69 -0.94,0 -1.69,-0.76 -1.69,-1.69 0,-0.93 0.75,-1.69 1.69,-1.69 0.93,0 1.69,0.76 1.69,1.69z"/>
  <path class="fil9" d="M84.1 31.13c0,0.93 -0.76,1.69 -1.69,1.69 -0.93,0 -1.69,-0.76 -1.69,-1.69 0,-0.93 0.76,-1.69 1.69,-1.69 0.93,0 1.69,0.76 1.69,1.69z"/>
  <path class="fil9" d="M90.19 31.13c0,0.93 -0.76,1.69 -1.69,1.69 -0.93,0 -1.69,-0.76 -1.69,-1.69 0,-0.93 0.76,-1.69 1.69,-1.69 0.93,0 1.69,0.76 1.69,1.69z"/>
  <path class="fil1" d="M334.55 203.46c0,-0.69 -0.04,-22.63 -0.09,-61.56l0.09 0.09c-56.56,0.01 -148.92,0.04 -253.11,0.06l-0.02 0 0.16 -0.15c0,21.09 0,41.69 0,61.56l-0.16 -0.15c144.34,0.09 251.62,0.15 253.13,0.15 -1.51,0 -108.79,0.07 -253.13,0.15l-0.15 0 0 -0.15c0,-19.87 0,-40.47 0,-61.56l0 -0.16 0.15 0 0.02 0c104.19,0.03 196.55,0.05 253.11,0.06l0.09 0 0 0.1c-0.06,38.93 -0.09,60.88 -0.09,61.56z"/>
  <path class="fil1" d="M204.37 136.73c0,0 -0.01,-0.54 -0.01,-1.57 -0.01,-1.03 -0.01,-2.56 -0.02,-4.56 0,-3.99 -0.02,-9.86 -0.03,-17.36 -0.01,-14.99 -0.04,-36.52 -0.06,-62.69l0.12 0.12c-34.07,0.01 -76.49,0.02 -122.37,0.03l-0.01 0 0.15 -0.15c0,30.83 -0.01,60.09 -0.01,86.18l-0.14 -0.14c36.13,0.03 66.71,0.05 88.26,0.07 10.78,0.01 19.3,0.03 25.14,0.03 2.91,0.01 5.15,0.02 6.67,0.02 0.76,0.01 1.33,0.01 1.72,0.01 0.39,0 0.59,0.01 0.59,0.01 0,0 -0.19,0 -0.57,0.01 -0.39,0 -0.96,0 -1.71,0 -1.51,0.01 -3.74,0.01 -6.64,0.02 -5.83,0.01 -14.34,0.02 -25.11,0.04 -21.57,0.02 -52.18,0.04 -88.35,0.07l-0.15 0 0 -0.14c0,-26.09 0,-55.35 -0.01,-86.18l0 -0.16 0.16 0 0.01 0c45.88,0.01 88.3,0.02 122.37,0.03l0.13 0 0 0.13c-0.03,26.2 -0.05,47.76 -0.07,62.77 -0.01,7.49 -0.02,13.35 -0.03,17.33 -0.01,1.99 -0.01,3.51 -0.02,4.54 0,1.02 -0.01,1.54 -0.01,1.54z"/>
  <path class="fil10" d="M95.22 120.43l8.81 -12.75c1.79,-2.59 5.36,-3.22 7.93,-1.38l1.24 0.88c3.07,2.2 7.4,0.82 8.62,-2.76l4.28 -12.52c1.74,-5.1 8.95,-5.1 10.69,0l2.07 6.06c1.66,4.86 8.42,5.15 10.5,0.46l1.8 -4.06c1.79,-4.04 7.32,-4.55 9.82,-0.9 2.62,3.84 8.5,3.04 10,-1.36l2 -5.85c1.84,-5.38 9.58,-4.98 10.85,0.57l7.66 33.61c0,0 -96,-0.27 -96.27,0z"/>
  <path class="fil11" d="M95.22 120.43l8.81 -12.75c1.79,-2.59 5.36,-3.22 7.93,-1.38l1.24 0.88c3.07,2.2 7.4,0.82 8.62,-2.76l4.28 -12.52c1.74,-5.1 8.95,-5.1 10.69,0l2.07 6.06c1.66,4.86 8.42,5.15 10.5,0.46l1.8 -4.06c1.79,-4.04 7.32,-4.55 9.82,-0.9 2.62,3.84 8.5,3.04 10,-1.36l2 -5.85c1.84,-5.38 9.58,-4.98 10.85,0.57l7.66 33.61c0,0 -96,-0.27 -96.27,0z"/>
  <path class="fil10" d="M94.97 120.76l7.16 -20.95c1.68,-4.91 8.59,-5 10.39,-0.13l3.43 9.28c1.49,4.02 6.79,4.89 9.47,1.55l2.78 -3.46c1.85,-2.29 5.17,-2.73 7.55,-0.99l6.47 4.73c0.95,0.69 2.09,1.06 3.26,1.06l8.24 0c1.17,0 2.31,0.38 3.25,1.07l6.13 4.48c2.51,1.84 6.05,1.23 7.81,-1.34l5.75 -8.41c0.07,-0.11 0.15,-0.21 0.23,-0.31 2.31,-2.93 6.93,-2.31 8.61,1.02l6.15 12.2c0,0 -96.68,-0.2 -96.68,0.2z"/>
  <path class="fil10" d="M191.62 120.56l-7.48 -6.09c-10.27,-7.55 -15.14,6.82 -23.2,-3.96l-2.78 -3.46c-1.85,-2.29 -5.18,-2.73 -7.56,-0.99l-3.21 2.35c-3.06,2.24 -6.75,3.44 -10.55,3.44l-4.2 0c-1.17,0 -2.31,0.38 -3.25,1.07l-6.13 4.48c-2.52,1.84 -4.27,2.09 -8.29,-1.29 0,0 -4.37,-3.55 -4.47,-3.68 -2.14,-2.6 -6.62,-2.6 -8.54,0 -0.47,0.63 -0.95,1.19 -1.47,1.76l-5.78 6.37c0,0 96.91,-0.39 96.91,0z"/>
  <path class="fil12" d="M191.62 120.56l-7.48 -6.09c-10.27,-7.55 -15.14,6.82 -23.2,-3.96l-2.78 -3.46c-1.85,-2.29 -5.18,-2.73 -7.56,-0.99l-3.21 2.35c-3.06,2.24 -6.75,3.44 -10.55,3.44l-4.2 0c-1.17,0 -2.31,0.38 -3.25,1.07l-6.13 4.48c-2.52,1.84 -4.27,2.09 -8.29,-1.29 0,0 -4.37,-3.55 -4.47,-3.68 -2.14,-2.6 -6.62,-2.6 -8.54,0 -0.47,0.63 -0.95,1.19 -1.47,1.76l-5.78 6.37c0,0 96.91,-0.39 96.91,0z"/>
  <path class="fil3" d="M121.55 72.18c0,0.09 -3.42,0.16 -7.65,0.16 -4.22,0 -7.64,-0.07 -7.64,-0.16 0,-0.08 3.42,-0.15 7.64,-0.15 4.23,0 7.65,0.07 7.65,0.15z"/>
  <polygon class="fil10" points="104.59,73.49 101.97,73.49 101.97,70.87 104.59,70.87 "/>
  <path class="fil3" d="M150.41 72.18c0,0.09 -3.43,0.16 -7.65,0.16 -4.23,0 -7.65,-0.07 -7.65,-0.16 0,-0.08 3.42,-0.15 7.65,-0.15 4.22,0 7.65,0.07 7.65,0.15z"/>
  <polygon class="fil10" points="133.44,73.49 130.82,73.49 130.82,70.87 133.44,70.87 "/>
  <path class="fil3" d="M179.26 72.18c0,0.09 -3.42,0.16 -7.64,0.16 -4.23,0 -7.65,-0.07 -7.65,-0.16 0,-0.08 3.42,-0.15 7.65,-0.15 4.22,0 7.64,0.07 7.64,0.15z"/>
  <polygon class="fil10" points="162.3,73.49 159.68,73.49 159.68,70.87 162.3,70.87 "/>
  <g id="_105553414835136">
   <path class="fil10" d="M179.64 192.94l6.3 -8.99c0.74,-1.04 2.19,-1.27 3.21,-0.5l3.31 2.5c1.09,0.82 2.64,0.5 3.32,-0.67l9.56 -16.56c0.79,-1.38 2.74,-1.52 3.72,-0.27l5.97 7.57c0.96,1.22 2.84,1.12 3.68,-0.19l4.36 -6.85c0.91,-1.43 3.01,-1.39 3.86,0.08l3.6 6.24c0.85,1.46 2.95,1.51 3.86,0.08l12.31 -19.3c0.88,-1.37 2.87,-1.39 3.78,-0.04l20.34 30.43c0.82,1.22 2.56,1.35 3.55,0.27l12.36 -13.61c0.86,-0.95 2.36,-0.99 3.27,-0.07l9.83 9.86c1.05,1.06 2.81,0.83 3.55,-0.46l17.59 -30.46c1.15,-2 4.21,-1.18 4.21,1.13l0 39.81 -145.54 0z"/>
  </g>
  <g id="_105553414833024">
   <g>
    <path class="fil10" d="M324.81 197.91c0,0 -0.01,-0.06 -0.01,-0.17 0,-0.13 -0.01,-0.31 -0.01,-0.54 -0.01,-0.49 -0.01,-1.22 -0.02,-2.22l0.04 0.04c-8.41,0.07 -37.64,0.11 -72.37,0.11 -34.73,0 -63.97,-0.04 -72.37,-0.11l0.04 -0.04c-0.01,1 -0.02,1.73 -0.02,2.22 -0.01,0.23 -0.01,0.41 -0.01,0.54 -0.01,0.11 -0.01,0.17 -0.01,0.17 -0.01,0 -0.01,-0.06 -0.01,-0.17 -0.01,-0.13 -0.01,-0.31 -0.01,-0.54 -0.01,-0.49 -0.01,-1.22 -0.02,-2.22l0 -0.04 0.04 0c8.4,-0.07 37.64,-0.12 72.37,-0.12 34.73,0 63.96,0.05 72.37,0.12l0.04 0 0 0.04c-0.01,1 -0.02,1.73 -0.02,2.22 0,0.23 -0.01,0.41 -0.01,0.54 0,0.11 -0.01,0.17 -0.01,0.17z"/>
   </g>
  </g>
  <g id="_105553414839104">
   <g>
    <path class="fil10" d="M196.15 197.68c-0.09,0 -0.16,-0.28 -0.16,-0.62 0,-0.34 0.07,-0.61 0.16,-0.61 0.09,0 0.16,0.27 0.16,0.61 0,0.34 -0.07,0.62 -0.16,0.62z"/>
   </g>
  </g>
  <g id="_105553414842784">
   <g>
    <path class="fil10" d="M212.23 197.68c-0.08,0 -0.15,-0.28 -0.15,-0.62 0,-0.34 0.07,-0.61 0.15,-0.61 0.09,0 0.16,0.27 0.16,0.61 0,0.34 -0.07,0.62 -0.16,0.62z"/>
   </g>
  </g>
  <g id="_105553414844416">
   <g>
    <path class="fil10" d="M228.31 197.68c-0.08,0 -0.15,-0.28 -0.15,-0.62 0,-0.34 0.07,-0.61 0.15,-0.61 0.09,0 0.16,0.27 0.16,0.61 0,0.34 -0.07,0.62 -0.16,0.62z"/>
   </g>
  </g>
  <g id="_105553414838912">
   <g>
    <path class="fil10" d="M244.4 197.68c-0.09,0 -0.16,-0.28 -0.16,-0.62 0,-0.34 0.07,-0.61 0.16,-0.61 0.08,0 0.15,0.27 0.15,0.61 0,0.34 -0.07,0.62 -0.15,0.62z"/>
   </g>
  </g>
  <g id="_105553414834176">
   <g>
    <path class="fil10" d="M260.48 197.68c-0.09,0 -0.16,-0.28 -0.16,-0.62 0,-0.34 0.07,-0.61 0.16,-0.61 0.09,0 0.15,0.27 0.15,0.61 0,0.34 -0.06,0.62 -0.15,0.62z"/>
   </g>
  </g>
  <g id="_105553414827776">
   <g>
    <path class="fil10" d="M276.56 197.68c-0.08,0 -0.15,-0.28 -0.15,-0.62 0,-0.34 0.07,-0.61 0.15,-0.61 0.09,0 0.16,0.27 0.16,0.61 0,0.34 -0.07,0.62 -0.16,0.62z"/>
   </g>
  </g>
  <g id="_105553414827296">
   <g>
    <path class="fil10" d="M292.64 197.68c-0.08,0 -0.15,-0.28 -0.15,-0.62 0,-0.34 0.07,-0.61 0.15,-0.61 0.09,0 0.16,0.27 0.16,0.61 0,0.34 -0.07,0.62 -0.16,0.62z"/>
   </g>
  </g>
  <g id="_105553414820224">
   <g>
    <path class="fil10" d="M308.73 197.68c-0.09,0 -0.16,-0.28 -0.16,-0.62 0,-0.34 0.07,-0.61 0.16,-0.61 0.08,0 0.15,0.27 0.15,0.61 0,0.34 -0.07,0.62 -0.15,0.62z"/>
   </g>
  </g>
  <path class="fil1" d="M335.35 116.98c0,0 -0.01,-0.35 -0.02,-1.04 0,-0.69 0,-1.71 -0.01,-3.04 0,-2.67 -0.01,-6.6 -0.03,-11.66 -0.01,-10.11 -0.03,-24.72 -0.06,-42.76l0.12 0.11c-31.9,0.01 -75.01,0.03 -122.38,0.04l-0.01 0 0.16 -0.15c-0.01,20.6 -0.01,40.39 -0.01,58.5l-0.15 -0.14c35.66,0.03 66.24,0.05 87.9,0.07 10.85,0.02 19.46,0.03 25.37,0.04 2.95,0.01 5.22,0.01 6.77,0.02 0.77,0 1.35,0 1.75,0.01 0.39,0 0.6,0 0.6,0 0,0 -0.2,0.01 -0.58,0.01 -0.4,0.01 -0.98,0.01 -1.74,0.01 -1.53,0.01 -3.8,0.01 -6.74,0.02 -5.9,0.01 -14.5,0.02 -25.33,0.04 -21.69,0.02 -52.3,0.04 -88,0.07l-0.15 0 0 -0.15c0,-18.11 0,-37.9 0,-58.5l0 -0.16 0.15 0 0.01 0c47.37,0.02 90.48,0.03 122.38,0.04l0.11 0 0 0.12c-0.03,18.07 -0.05,32.7 -0.06,42.83 -0.01,5.05 -0.02,8.97 -0.03,11.63 0,1.33 -0.01,2.34 -0.01,3.02 -0.01,0.68 -0.01,1.02 -0.01,1.02z"/>
  <path class="fil1" d="M307.65 83.99l-84.31 0c-0.77,0 -1.4,-0.63 -1.4,-1.4 0,-0.78 0.63,-1.41 1.4,-1.41l84.31 0c0.77,0 1.4,0.63 1.4,1.41 0,0.77 -0.63,1.4 -1.4,1.4z"/>
  <path class="fil1" d="M307.65 72.86l-84.31 0c-0.77,0 -1.4,-0.63 -1.4,-1.4 0,-0.78 0.63,-1.41 1.4,-1.41l84.31 0c0.77,0 1.4,0.63 1.4,1.41 0,0.77 -0.63,1.4 -1.4,1.4z"/>
  <path class="fil13" d="M261.43 83.99l-38.09 0c-0.77,0 -1.4,-0.63 -1.4,-1.4 0,-0.78 0.63,-1.41 1.4,-1.41l38.09 0c0.78,0 1.41,0.63 1.41,1.41 0,0.77 -0.63,1.4 -1.41,1.4z"/>
  <polygon class="fil3" points="318.33,83.18 317.71,83.18 317.71,83.99 317.26,83.99 317.26,83.18 315.44,83.18 315.44,82.86 317.11,80.71 317.62,80.71 316.01,82.78 317.27,82.78 317.27,82.07 317.71,82.07 317.71,82.78 318.33,82.78 "/>
  <path class="fil3" d="M320.9 83.01c0,0.56 -0.4,1.02 -1.24,1.02 -0.46,0 -0.92,-0.15 -1.2,-0.4l0.21 -0.37c0.22,0.21 0.59,0.35 0.99,0.35 0.49,0 0.77,-0.23 0.77,-0.58 0,-0.37 -0.23,-0.6 -0.99,-0.6l-0.74 0 0.17 -1.72 1.85 0 0 0.41 -1.46 0 -0.09 0.9 0.37 0c0.98,0 1.36,0.41 1.36,0.99z"/>
  <path class="fil3" d="M321.19 81.58c0,-0.54 0.31,-0.9 0.76,-0.9 0.46,0 0.76,0.36 0.76,0.9 0,0.54 -0.3,0.89 -0.76,0.89 -0.45,0 -0.76,-0.36 -0.76,-0.89zm1.22 0l0 0c0,-0.4 -0.17,-0.63 -0.46,-0.63 -0.28,0 -0.45,0.24 -0.45,0.63 0,0.39 0.17,0.63 0.45,0.63 0.29,0 0.46,-0.24 0.46,-0.63zm1.52 -0.87l0 0 0.36 0 -2.24 3.28 -0.36 0 2.24 -3.28zm-0.66 2.41l0 0c0,-0.53 0.31,-0.89 0.76,-0.89 0.45,0 0.76,0.36 0.76,0.89 0,0.54 -0.31,0.9 -0.76,0.9 -0.45,0 -0.76,-0.36 -0.76,-0.9zm1.22 0l0 0c0,-0.39 -0.18,-0.62 -0.46,-0.62 -0.29,0 -0.46,0.23 -0.46,0.62 0,0.4 0.17,0.63 0.46,0.63 0.28,0 0.46,-0.24 0.46,-0.63z"/>
  <path class="fil1" d="M307.65 94.29l-84.31 0c-0.77,0 -1.4,-0.63 -1.4,-1.4 0,-0.78 0.63,-1.41 1.4,-1.41l84.31 0c0.77,0 1.4,0.63 1.4,1.41 0,0.77 -0.63,1.4 -1.4,1.4z"/>
  <path class="fil13" d="M273.85 94.29l-50.42 0c-1.05,0 -1.49,-0.63 -1.49,-1.4 0,-0.78 0.44,-1.41 0.99,-1.41l50.42 0c0.98,0 1.61,0.63 1.61,1.41 0,1.15 -1.06,1.4 -1.11,1.4z"/>
  <polygon class="fil3" points="317.87,91.02 317.87,91.33 316.55,94.29 316.05,94.29 317.35,91.42 315.85,91.42 315.85,92.01 315.4,92.01 315.4,91.02 "/>
  <path class="fil3" d="M318.19 92.65c0,-1.06 0.57,-1.67 1.34,-1.67 0.76,0 1.33,0.61 1.33,1.67 0,1.07 -0.57,1.68 -1.33,1.68 -0.77,0 -1.34,-0.61 -1.34,-1.68zm2.21 0l0 0c0,-0.83 -0.36,-1.26 -0.87,-1.26 -0.52,0 -0.87,0.43 -0.87,1.26 0,0.84 0.35,1.26 0.87,1.26 0.51,0 0.87,-0.42 0.87,-1.26z"/>
  <path class="fil3" d="M321.26 91.88c0,-0.53 0.31,-0.89 0.77,-0.89 0.45,0 0.75,0.35 0.75,0.89 0,0.54 -0.3,0.9 -0.75,0.9 -0.46,0 -0.77,-0.36 -0.77,-0.9zm1.22 0l0 0c0,-0.39 -0.17,-0.63 -0.45,-0.63 -0.29,0 -0.46,0.24 -0.46,0.63 0,0.39 0.17,0.63 0.46,0.63 0.28,0 0.45,-0.23 0.45,-0.63zm1.52 -0.86l0 0 0.36 0 -2.24 3.27 -0.36 0 2.24 -3.27zm-0.66 2.41l0 0c0,-0.54 0.31,-0.9 0.76,-0.9 0.45,0 0.76,0.36 0.76,0.9 0,0.53 -0.31,0.89 -0.76,0.89 -0.45,0 -0.76,-0.36 -0.76,-0.89zm1.22 0l0 0c0,-0.39 -0.18,-0.63 -0.46,-0.63 -0.29,0 -0.46,0.23 -0.46,0.63 0,0.39 0.17,0.63 0.46,0.63 0.28,0 0.46,-0.24 0.46,-0.63z"/>
  <path class="fil1" d="M307.65 104.35l-84.31 0c-0.77,0 -1.4,-0.63 -1.4,-1.4 0,-0.78 0.63,-1.41 1.4,-1.41l84.31 0c0.77,0 1.4,0.63 1.4,1.41 0,0.77 -0.63,1.4 -1.4,1.4z"/>
  <path class="fil13" d="M254.65 104.35l-31.31 0c-0.77,0 -1.4,-0.63 -1.4,-1.4 0,-0.78 0.63,-1.41 1.4,-1.41l31.31 0c0.78,0 1.41,0.63 1.41,1.41 0,0.77 -0.63,1.4 -1.41,1.4z"/>
  <path class="fil3" d="M317.78 103.37c0,0.57 -0.4,1.02 -1.24,1.02 -0.46,0 -0.92,-0.15 -1.2,-0.4l0.21 -0.37c0.22,0.21 0.59,0.35 0.99,0.35 0.49,0 0.77,-0.23 0.77,-0.58 0,-0.37 -0.23,-0.6 -0.99,-0.6l-0.74 0 0.17 -1.72 1.85 0 0 0.41 -1.46 0 -0.09 0.9 0.37 0c0.98,0 1.36,0.41 1.36,0.99z"/>
  <path class="fil3" d="M318.17 102.71c0,-1.06 0.57,-1.67 1.34,-1.67 0.76,0 1.34,0.61 1.34,1.67 0,1.07 -0.58,1.68 -1.34,1.68 -0.77,0 -1.34,-0.61 -1.34,-1.68zm2.21 0l0 0c0,-0.83 -0.36,-1.26 -0.87,-1.26 -0.52,0 -0.87,0.43 -0.87,1.26 0,0.84 0.35,1.26 0.87,1.26 0.51,0 0.87,-0.42 0.87,-1.26z"/>
  <path class="fil3" d="M321.24 101.94c0,-0.53 0.31,-0.89 0.77,-0.89 0.45,0 0.76,0.35 0.76,0.89 0,0.54 -0.31,0.9 -0.76,0.9 -0.46,0 -0.77,-0.36 -0.77,-0.9zm1.23 0l0 0c0,-0.39 -0.18,-0.63 -0.46,-0.63 -0.28,0 -0.46,0.24 -0.46,0.63 0,0.39 0.18,0.63 0.46,0.63 0.28,0 0.46,-0.23 0.46,-0.63zm1.51 -0.87l0 0 0.36 0 -2.23 3.28 -0.37 0 2.24 -3.28zm-0.66 2.42l0 0c0,-0.54 0.31,-0.9 0.76,-0.9 0.46,0 0.77,0.36 0.77,0.9 0,0.53 -0.31,0.89 -0.77,0.89 -0.45,0 -0.76,-0.36 -0.76,-0.89zm1.22 0l0 0c0,-0.39 -0.18,-0.63 -0.46,-0.63 -0.28,0 -0.46,0.23 -0.46,0.63 0,0.39 0.18,0.62 0.46,0.62 0.28,0 0.46,-0.23 0.46,-0.62z"/>
  <path class="fil10" d="M279.15 72.86l-55.81 0c-0.77,0 -1.4,-0.63 -1.4,-1.4 0,-0.78 0.63,-1.41 1.4,-1.41l55.81 0c0.78,0 1.41,0.63 1.41,1.41 0,0.77 -0.63,1.4 -1.41,1.4z"/>
  <path class="fil3" d="M318.02 71.87c0,0.63 -0.51,1.03 -1.16,1.03 -0.88,0 -1.38,-0.59 -1.38,-1.63 0,-1.12 0.64,-1.72 1.55,-1.72 0.31,0 0.61,0.06 0.82,0.19l-0.18 0.36c-0.17,-0.11 -0.39,-0.15 -0.63,-0.15 -0.66,0 -1.09,0.42 -1.09,1.24 0,0.03 0,0.07 0.01,0.11 0.18,-0.28 0.53,-0.43 0.94,-0.43 0.65,0 1.12,0.39 1.12,1zm-0.45 0.01l0 0c0,-0.38 -0.29,-0.63 -0.75,-0.63 -0.45,0 -0.76,0.28 -0.76,0.64 0,0.34 0.28,0.63 0.78,0.63 0.43,0 0.73,-0.25 0.73,-0.64z"/>
  <path class="fil3" d="M318.37 71.22c0,-1.06 0.57,-1.67 1.34,-1.67 0.76,0 1.34,0.61 1.34,1.67 0,1.07 -0.58,1.68 -1.34,1.68 -0.77,0 -1.34,-0.61 -1.34,-1.68zm2.21 0l0 0c0,-0.83 -0.36,-1.26 -0.87,-1.26 -0.51,0 -0.87,0.43 -0.87,1.26 0,0.84 0.36,1.26 0.87,1.26 0.51,0 0.87,-0.42 0.87,-1.26z"/>
  <path class="fil3" d="M321.45 70.45c0,-0.53 0.3,-0.89 0.76,-0.89 0.45,0 0.76,0.35 0.76,0.89 0,0.54 -0.31,0.9 -0.76,0.9 -0.46,0 -0.76,-0.37 -0.76,-0.9zm1.22 0l0 0c0,-0.39 -0.18,-0.63 -0.46,-0.63 -0.28,0 -0.46,0.24 -0.46,0.63 0,0.39 0.18,0.63 0.46,0.63 0.28,0 0.46,-0.24 0.46,-0.63zm1.51 -0.87l0 0 0.37 0 -2.24 3.28 -0.36 0 2.23 -3.28zm-0.66 2.42l0 0c0,-0.54 0.31,-0.9 0.76,-0.9 0.46,0 0.77,0.36 0.77,0.9 0,0.53 -0.31,0.89 -0.77,0.89 -0.45,0 -0.76,-0.36 -0.76,-0.89zm1.22 0l0 0c0,-0.39 -0.18,-0.63 -0.46,-0.63 -0.28,0 -0.46,0.23 -0.46,0.63 0,0.39 0.18,0.62 0.46,0.62 0.28,0 0.46,-0.23 0.46,-0.62z"/>
  <path class="fil1" d="M305.68 122.98c0,0.08 -20.63,0.15 -46.08,0.15 -25.46,0 -46.09,-0.07 -46.09,-0.15 0,-0.09 20.63,-0.16 46.09,-0.16 25.45,0 46.08,0.07 46.08,0.16z"/>
  <path class="fil1" d="M305.68 128.44c0,0.09 -20.63,0.16 -46.08,0.16 -25.46,0 -46.09,-0.07 -46.09,-0.16 0,-0.08 20.63,-0.15 46.09,-0.15 25.45,0 46.08,0.07 46.08,0.15z"/>
  <path class="fil1" d="M305.68 133.39c0,0.08 -20.63,0.15 -46.08,0.15 -25.46,0 -46.09,-0.07 -46.09,-0.15 0,-0.09 20.63,-0.16 46.09,-0.16 25.45,0 46.08,0.07 46.08,0.16z"/>
  <path class="fil1" d="M98.27 189.37c-0.91,0 -1.66,-0.75 -1.66,-1.66l0 -31.08c0,-0.91 0.75,-1.66 1.66,-1.66 0.92,0 1.66,0.75 1.66,1.66l0 31.08c0,0.91 -0.74,1.66 -1.66,1.66z"/>
  <path class="fil10" d="M98.27 189.51c-0.91,0 -1.66,-0.74 -1.66,-1.65l0 -20.04c0,-0.92 0.75,-1.66 1.66,-1.66 0.92,0 1.66,0.74 1.66,1.66l0 20.04c0,0.91 -0.74,1.65 -1.66,1.65z"/>
  <polygon class="fil3" points="97.23,190.81 97.23,193.57 96.94,193.57 96.94,191.06 96.29,191.06 96.29,190.81 "/>
  <path class="fil3" d="M97.89 192.19c0,-0.88 0.46,-1.4 1.1,-1.4 0.64,0 1.1,0.52 1.1,1.4 0,0.88 -0.46,1.41 -1.1,1.41 -0.64,0 -1.1,-0.53 -1.1,-1.41zm1.91 0l0 0c0,-0.74 -0.33,-1.14 -0.81,-1.14 -0.48,0 -0.82,0.4 -0.82,1.14 0,0.74 0.34,1.15 0.82,1.15 0.48,0 0.81,-0.41 0.81,-1.15z"/>
  <path class="fil1" d="M104.89 189.37c-0.91,0 -1.65,-0.75 -1.65,-1.66l0 -31.08c0,-0.91 0.74,-1.66 1.65,-1.66 0.92,0 1.66,0.75 1.66,1.66l0 31.08c0,0.91 -0.74,1.66 -1.66,1.66z"/>
  <path class="fil10" d="M104.89 189.51c-0.91,0 -1.65,-0.74 -1.65,-1.65l0 -26.35c0,-0.92 0.74,-1.66 1.65,-1.66 0.92,0 1.66,0.74 1.66,1.66l0 26.35c0,0.91 -0.74,1.65 -1.66,1.65z"/>
  <path class="fil3" d="M104.5 193.32l0 0.25 -1.94 0 0 -0.2 1.15 -1.12c0.31,-0.31 0.37,-0.5 0.37,-0.69 0,-0.32 -0.23,-0.51 -0.65,-0.51 -0.32,0 -0.57,0.09 -0.75,0.3l-0.2 -0.17c0.21,-0.25 0.55,-0.39 0.98,-0.39 0.56,0 0.91,0.28 0.91,0.74 0,0.27 -0.08,0.5 -0.45,0.87l-0.94 0.92 1.52 0z"/>
  <path class="fil3" d="M104.83 192.19c0,-0.88 0.47,-1.4 1.11,-1.4 0.64,0 1.1,0.52 1.1,1.4 0,0.88 -0.46,1.41 -1.1,1.41 -0.64,0 -1.11,-0.53 -1.11,-1.41zm1.92 0l0 0c0,-0.74 -0.33,-1.14 -0.81,-1.14 -0.49,0 -0.82,0.4 -0.82,1.14 0,0.74 0.33,1.15 0.82,1.15 0.48,0 0.81,-0.41 0.81,-1.15z"/>
  <path class="fil1" d="M111.51 189.37c-0.91,0 -1.65,-0.75 -1.65,-1.66l0 -31.08c0,-0.91 0.74,-1.66 1.65,-1.66 0.92,0 1.66,0.75 1.66,1.66l0 31.08c0,0.91 -0.74,1.66 -1.66,1.66z"/>
  <path class="fil10" d="M111.51 189.51c-0.91,0 -1.65,-0.74 -1.65,-1.65l0 -15.31c0,-0.91 0.74,-1.65 1.65,-1.65 0.92,0 1.66,0.74 1.66,1.65l0 15.31c0,0.91 -0.74,1.65 -1.66,1.65z"/>
  <path class="fil3" d="M111.08 192.78c0,0.46 -0.33,0.82 -1,0.82 -0.4,0 -0.78,-0.14 -0.99,-0.36l0.14 -0.22c0.17,0.18 0.49,0.32 0.85,0.32 0.46,0 0.71,-0.22 0.71,-0.56 0,-0.33 -0.23,-0.55 -0.74,-0.55l-0.2 0 0 -0.21 0.76 -0.96 -1.41 0 0 -0.25 1.78 0 0 0.2 -0.78 0.98c0.59,0.03 0.88,0.35 0.88,0.79z"/>
  <path class="fil3" d="M111.48 192.19c0,-0.88 0.46,-1.4 1.1,-1.4 0.64,0 1.11,0.52 1.11,1.4 0,0.88 -0.47,1.41 -1.11,1.41 -0.64,0 -1.1,-0.53 -1.1,-1.41zm1.92 0l0 0c0,-0.74 -0.34,-1.14 -0.82,-1.14 -0.48,0 -0.81,0.4 -0.81,1.14 0,0.74 0.33,1.15 0.81,1.15 0.48,0 0.82,-0.41 0.82,-1.15z"/>
  <path class="fil1" d="M118.14 189.37c-0.92,0 -1.66,-0.75 -1.66,-1.66l0 -31.08c0,-0.91 0.74,-1.66 1.66,-1.66 0.91,0 1.65,0.75 1.65,1.66l0 31.08c0,0.91 -0.74,1.66 -1.65,1.66z"/>
  <path class="fil10" d="M118.14 189.51c-0.92,0 -1.66,-0.74 -1.66,-1.65l0 -26.35c0,-0.92 0.74,-1.66 1.66,-1.66 0.91,0 1.65,0.74 1.65,1.66l0 26.35c0,0.91 -0.74,1.65 -1.65,1.65z"/>
  <polygon class="fil3" points="118.15,192.85 117.6,192.85 117.6,193.57 117.31,193.57 117.31,192.85 115.75,192.85 115.75,192.64 117.22,190.81 117.53,190.81 116.12,192.59 117.32,192.59 117.32,191.95 117.6,191.95 117.6,192.59 118.15,192.59 "/>
  <path class="fil3" d="M118.41 192.19c0,-0.88 0.46,-1.4 1.1,-1.4 0.64,0 1.11,0.52 1.11,1.4 0,0.88 -0.47,1.41 -1.11,1.41 -0.64,0 -1.1,-0.53 -1.1,-1.41zm1.91 0l0 0c0,-0.74 -0.33,-1.14 -0.81,-1.14 -0.48,0 -0.81,0.4 -0.81,1.14 0,0.74 0.33,1.15 0.81,1.15 0.48,0 0.81,-0.41 0.81,-1.15z"/>
  <path class="fil1" d="M124.76 189.37c-0.92,0 -1.66,-0.75 -1.66,-1.66l0 -31.08c0,-0.91 0.74,-1.66 1.66,-1.66 0.91,0 1.66,0.75 1.66,1.66l0 31.08c0,0.91 -0.75,1.66 -1.66,1.66z"/>
  <path class="fil10" d="M124.76 189.51c-0.92,0 -1.66,-0.74 -1.66,-1.65l0 -21.3c0,-0.92 0.74,-1.66 1.66,-1.66 0.91,0 1.66,0.74 1.66,1.66l0 21.3c0,0.91 -0.75,1.65 -1.66,1.65z"/>
  <path class="fil3" d="M124.61 192.76c0,0.47 -0.33,0.84 -1,0.84 -0.4,0 -0.78,-0.14 -0.99,-0.36l0.14 -0.22c0.17,0.18 0.49,0.32 0.85,0.32 0.46,0 0.71,-0.23 0.71,-0.57 0,-0.35 -0.22,-0.58 -0.92,-0.58l-0.59 0 0.14 -1.38 1.52 0 0 0.25 -1.27 0 -0.09 0.88 0.35 0c0.84,0 1.15,0.33 1.15,0.82z"/>
  <path class="fil3" d="M124.97 192.19c0,-0.88 0.46,-1.4 1.1,-1.4 0.64,0 1.11,0.52 1.11,1.4 0,0.88 -0.47,1.41 -1.11,1.41 -0.64,0 -1.1,-0.53 -1.1,-1.41zm1.91 0l0 0c0,-0.74 -0.33,-1.14 -0.81,-1.14 -0.48,0 -0.81,0.4 -0.81,1.14 0,0.74 0.33,1.15 0.81,1.15 0.48,0 0.81,-0.41 0.81,-1.15z"/>
  <path class="fil1" d="M131.38 189.37c-0.91,0 -1.66,-0.75 -1.66,-1.66l0 -31.08c0,-0.91 0.75,-1.66 1.66,-1.66 0.92,0 1.66,0.75 1.66,1.66l0 31.08c0,0.91 -0.74,1.66 -1.66,1.66z"/>
  <path class="fil10" d="M131.38 189.37c-0.91,0 -1.66,-0.75 -1.66,-1.51l0 -15.31c0,-1.06 0.75,-1.8 1.66,-1.8 0.92,0 1.66,0.74 1.66,1.66l0 15.3c0,0.91 -0.74,1.66 -1.66,1.66z"/>
  <path class="fil3" d="M131.16 192.75c0,0.51 -0.4,0.85 -0.94,0.85 -0.73,0 -1.13,-0.51 -1.13,-1.39 0,-0.94 0.51,-1.42 1.26,-1.42 0.25,0 0.48,0.04 0.66,0.15l-0.12 0.22c-0.14,-0.09 -0.33,-0.13 -0.54,-0.13 -0.59,0 -0.97,0.39 -0.97,1.14 0,0.06 0,0.14 0.01,0.22 0.14,-0.3 0.46,-0.47 0.84,-0.47 0.55,0 0.93,0.32 0.93,0.83zm-0.28 0l0 0c0,-0.36 -0.26,-0.59 -0.69,-0.59 -0.42,0 -0.71,0.26 -0.71,0.6 0,0.31 0.25,0.59 0.73,0.59 0.4,0 0.67,-0.23 0.67,-0.6z"/>
  <path class="fil3" d="M131.49 192.19c0,-0.88 0.46,-1.4 1.1,-1.4 0.64,0 1.11,0.52 1.11,1.4 0,0.88 -0.47,1.41 -1.11,1.41 -0.64,0 -1.1,-0.53 -1.1,-1.41zm1.91 0l0 0c0,-0.74 -0.33,-1.14 -0.81,-1.14 -0.48,0 -0.81,0.4 -0.81,1.14 0,0.74 0.33,1.15 0.81,1.15 0.48,0 0.81,-0.41 0.81,-1.15z"/>
  <path class="fil1" d="M138 189.37c-0.91,0 -1.65,-0.75 -1.65,-1.66l0 -31.08c0,-0.91 0.74,-1.66 1.65,-1.66 0.92,0 1.66,0.75 1.66,1.66l0 31.08c0,0.91 -0.74,1.66 -1.66,1.66z"/>
  <path class="fil10" d="M138 189.51c-0.91,0 -1.65,-0.74 -1.65,-1.65l0 -27.93c0,-0.91 0.74,-1.65 1.65,-1.65 0.92,0 1.66,0.74 1.66,1.65l0 27.93c0,0.91 -0.74,1.65 -1.66,1.65z"/>
  <polygon class="fil3" points="137.65,190.81 137.65,191.01 136.49,193.57 136.19,193.57 137.32,191.06 135.9,191.06 135.9,191.58 135.62,191.58 135.62,190.81 "/>
  <path class="fil3" d="M137.94 192.19c0,-0.88 0.47,-1.4 1.11,-1.4 0.63,0 1.1,0.52 1.1,1.4 0,0.88 -0.47,1.41 -1.1,1.41 -0.64,0 -1.11,-0.53 -1.11,-1.41zm1.92 0l0 0c0,-0.74 -0.33,-1.14 -0.81,-1.14 -0.49,0 -0.82,0.4 -0.82,1.14 0,0.74 0.33,1.15 0.82,1.15 0.48,0 0.81,-0.41 0.81,-1.15z"/>
  <path class="fil1" d="M144.63 189.37c-0.92,0 -1.66,-0.75 -1.66,-1.66l0 -31.08c0,-0.91 0.74,-1.66 1.66,-1.66 0.91,0 1.65,0.75 1.65,1.66l0 31.08c0,0.91 -0.74,1.66 -1.65,1.66z"/>
  <path class="fil10" d="M144.63 189.51c-0.92,0 -1.66,-0.74 -1.66,-1.65l0 -12.15c0,-0.92 0.74,-1.66 1.66,-1.66 0.91,0 1.65,0.74 1.65,1.66l0 12.15c0,0.91 -0.74,1.65 -1.65,1.65z"/>
  <path class="fil3" d="M144.3 192.8c0,0.49 -0.42,0.8 -1.08,0.8 -0.66,0 -1.06,-0.31 -1.06,-0.8 0,-0.33 0.19,-0.56 0.53,-0.68 -0.28,-0.11 -0.43,-0.32 -0.43,-0.6 0,-0.45 0.38,-0.73 0.96,-0.73 0.59,0 0.98,0.28 0.98,0.73 0,0.28 -0.16,0.49 -0.44,0.6 0.34,0.12 0.54,0.35 0.54,0.68zm-0.3 0l0 0c0,-0.34 -0.29,-0.55 -0.78,-0.55 -0.49,0 -0.78,0.21 -0.78,0.55 0,0.34 0.29,0.55 0.78,0.55 0.49,0 0.78,-0.21 0.78,-0.55zm-0.78 -0.78l0 0c0.43,0 0.69,-0.19 0.69,-0.49 0,-0.31 -0.27,-0.5 -0.69,-0.5 -0.42,0 -0.68,0.19 -0.68,0.49 0,0.31 0.25,0.5 0.68,0.5z"/>
  <path class="fil3" d="M144.69 192.19c0,-0.88 0.46,-1.4 1.1,-1.4 0.64,0 1.1,0.52 1.1,1.4 0,0.88 -0.46,1.41 -1.1,1.41 -0.64,0 -1.1,-0.53 -1.1,-1.41zm1.91 0l0 0c0,-0.74 -0.33,-1.14 -0.81,-1.14 -0.48,0 -0.81,0.4 -0.81,1.14 0,0.74 0.33,1.15 0.81,1.15 0.48,0 0.81,-0.41 0.81,-1.15z"/>
  <path class="fil1" d="M151.25 189.37c-0.92,0 -1.66,-0.75 -1.66,-1.66l0 -31.08c0,-0.91 0.74,-1.66 1.66,-1.66 0.91,0 1.65,0.75 1.65,1.66l0 31.08c0,0.91 -0.74,1.66 -1.65,1.66z"/>
  <path class="fil10" d="M151.25 189.37c-0.92,0 -1.66,-0.75 -1.66,-1.51l0 -4.26c0,-1.07 0.74,-1.81 1.66,-1.81 0.91,0 1.65,0.74 1.65,1.66l0 4.26c0,0.91 -0.74,1.66 -1.65,1.66z"/>
  <path class="fil3" d="M150.75 192.17c0,0.94 -0.51,1.43 -1.26,1.43 -0.25,0 -0.49,-0.05 -0.66,-0.15l0.12 -0.23c0.14,0.09 0.33,0.13 0.53,0.13 0.6,0 0.98,-0.39 0.98,-1.14 0,-0.06 0,-0.14 -0.01,-0.22 -0.14,0.3 -0.46,0.47 -0.85,0.47 -0.54,0 -0.93,-0.32 -0.93,-0.83 0,-0.51 0.41,-0.84 0.95,-0.84 0.73,0 1.13,0.5 1.13,1.38zm-0.39 -0.55l0 0c0,-0.31 -0.25,-0.59 -0.73,-0.59 -0.4,0 -0.68,0.23 -0.68,0.6 0,0.36 0.27,0.59 0.7,0.59 0.42,0 0.71,-0.26 0.71,-0.6z"/>
  <path class="fil3" d="M151.16 192.19c0,-0.88 0.46,-1.4 1.1,-1.4 0.64,0 1.1,0.52 1.1,1.4 0,0.88 -0.46,1.41 -1.1,1.41 -0.64,0 -1.1,-0.53 -1.1,-1.41zm1.91 0l0 0c0,-0.74 -0.33,-1.14 -0.81,-1.14 -0.48,0 -0.81,0.4 -0.81,1.14 0,0.74 0.33,1.15 0.81,1.15 0.48,0 0.81,-0.41 0.81,-1.15z"/>
  <path class="fil1" d="M157.87 189.37c-0.92,0 -1.66,-0.75 -1.66,-1.66l0 -31.08c0,-0.91 0.74,-1.66 1.66,-1.66 0.91,0 1.66,0.75 1.66,1.66l0 31.08c0,0.91 -0.75,1.66 -1.66,1.66z"/>
  <path class="fil10" d="M157.87 189.37c-0.92,0 -1.66,-0.75 -1.66,-1.51l0 -15.31c0,-1.06 0.74,-1.8 1.66,-1.8 0.91,0 1.66,0.74 1.66,1.66l0 15.3c0,0.91 -0.75,1.66 -1.66,1.66z"/>
  <polygon class="fil3" points="155.5,190.81 155.5,193.57 155.21,193.57 155.21,191.06 154.56,191.06 154.56,190.81 "/>
  <path class="fil3" d="M156.15 192.19c0,-0.88 0.47,-1.4 1.11,-1.4 0.63,0 1.1,0.52 1.1,1.4 0,0.88 -0.47,1.41 -1.1,1.41 -0.64,0 -1.11,-0.53 -1.11,-1.41zm1.92 0l0 0c0,-0.74 -0.33,-1.14 -0.81,-1.14 -0.49,0 -0.82,0.4 -0.82,1.14 0,0.74 0.33,1.15 0.82,1.15 0.48,0 0.81,-0.41 0.81,-1.15z"/>
  <path class="fil3" d="M158.76 192.19c0,-0.88 0.47,-1.4 1.11,-1.4 0.64,0 1.1,0.52 1.1,1.4 0,0.88 -0.46,1.41 -1.1,1.41 -0.64,0 -1.11,-0.53 -1.11,-1.41zm1.92 0l0 0c0,-0.74 -0.33,-1.14 -0.81,-1.14 -0.49,0 -0.82,0.4 -0.82,1.14 0,0.74 0.33,1.15 0.82,1.15 0.48,0 0.81,-0.41 0.81,-1.15z"/>
  <path class="fil1" d="M171.59 195.86c-0.08,0 -0.15,-10.23 -0.15,-22.84 0,-12.62 0.07,-22.85 0.15,-22.85 0.09,0 0.16,10.23 0.16,22.85 0,12.61 -0.07,22.84 -0.16,22.84z"/>
  <path class="fil3" d="M210.13 153.15c0,0.09 -6.31,0.16 -14.08,0.16 -7.78,0 -14.09,-0.07 -14.09,-0.16 0,-0.08 6.31,-0.15 14.09,-0.15 7.77,0 14.08,0.07 14.08,0.15z"/>
  <path class="fil14" d="M179.64 192.94l6.3 -8.99c0.74,-1.04 2.19,-1.27 3.21,-0.5l3.31 2.5c1.09,0.82 2.64,0.5 3.32,-0.67l9.56 -16.56c0.79,-1.38 2.74,-1.52 3.72,-0.27l5.97 7.57c0.96,1.22 2.84,1.12 3.68,-0.19l4.36 -6.85c0.91,-1.43 3.01,-1.39 3.86,0.08l3.6 6.24c0.85,1.46 2.95,1.51 3.86,0.08l12.31 -19.3c0.88,-1.37 2.87,-1.39 3.78,-0.04l20.34 30.43c0.82,1.22 2.56,1.35 3.55,0.27l12.36 -13.61c0.86,-0.95 2.36,-0.99 3.27,-0.07l9.83 9.86c1.05,1.06 2.81,0.83 3.55,-0.46l17.59 -30.46c1.15,-2 4.21,-1.18 4.21,1.13l0 39.81 -145.54 0z"/>
  <path class="fil13" d="M66.86 196.78c-14.05,0 -26.16,-10.63 -27.69,-24.9 -1.63,-15.28 9.47,-29.03 24.75,-30.66 7.4,-0.79 14.66,1.34 20.45,6.02 5.8,4.67 9.42,11.32 10.21,18.72 1.63,15.27 -9.47,29.03 -24.74,30.66 -1,0.11 -2,0.16 -2.98,0.16zm0.06 -51.55l0 0c-0.85,0 -1.7,0.04 -2.56,0.13 -12.99,1.39 -22.43,13.09 -21.04,26.08 1.39,12.99 13.09,22.43 26.08,21.03 12.98,-1.38 22.42,-13.08 21.03,-26.07 -0.67,-6.29 -3.75,-11.94 -8.68,-15.92 -4.25,-3.43 -9.44,-5.25 -14.83,-5.25z"/>
  <path class="fil13" d="M108.16 222.53c-0.59,0 -1.18,-0.25 -1.59,-0.73l-26.35 -30.92c-0.74,-0.88 -0.64,-2.19 0.24,-2.94 0.87,-0.75 2.19,-0.64 2.94,0.23l26.34 30.92c0.75,0.88 0.65,2.2 -0.23,2.94 -0.39,0.34 -0.88,0.5 -1.35,0.5z"/>
  <g id="_105553414359360">
   <path class="fil10" d="M360.55 220.79c4.29,1.5 9.88,0.16 13.55,-2.52 3.67,-2.67 6.31,-6.51 8.65,-10.41 1,-1.66 1.98,-3.39 2.29,-5.3 0.32,-1.92 -0.15,-4.07 -1.63,-5.32 -2.31,-1.94 -5.84,-0.95 -8.46,0.54 -8.19,4.67 -13.78,13.61 -14.4,23.01z"/>
  </g>
  <g id="_105553414359232">
   <path class="fil10" d="M365.16 231.06c2.57,3.4 7,4.91 11.26,5.11 4.26,0.19 8.46,-0.98 12.44,-2.51 1.45,-0.56 3.03,-1.31 3.52,-2.78 0.38,-1.11 -0.01,-2.37 -0.75,-3.28 -0.74,-0.9 -1.8,-1.5 -2.87,-1.96 -3.92,-1.67 -8.41,-1.75 -12.53,-0.68 -4.13,1.07 -7.73,3.46 -11.07,6.1z"/>
  </g>
  <g id="_105553414360128">
   <path class="fil10" d="M360.49 202.42c3.55,0.07 6.24,-3.04 7.84,-6.2 2.23,-4.39 2.98,-9.51 2.12,-14.35 -0.33,-1.81 -1.01,-3.77 -2.64,-4.64 -1.65,-0.89 -3.79,-0.3 -5.18,0.96 -1.38,1.26 -2.14,3.07 -2.69,4.86 -1.91,6.16 -1.49,13.25 0.55,19.37z"/>
  </g>
  <g id="_105553414370624">
   <path class="fil10" d="M348.83 222.06c6.05,-10.3 7.06,-22.91 3.48,-34.31 -0.58,-1.85 -1.67,-3.97 -3.61,-4.09 -2.14,-0.13 -3.48,2.25 -4.07,4.32 -2.08,7.24 -1.64,14.93 -1.18,22.44 0.29,4.63 1.88,8.59 5.38,11.64z"/>
  </g>
  <g id="_105553414359552">
   <path class="fil10" d="M342.53 226.29c-2.19,-7.05 -7.77,-12.97 -14.69,-15.57 -1.6,-0.61 -3.65,-0.95 -4.85,0.28 -1.17,1.2 -0.81,3.22 -0.06,4.73 1.22,2.43 3.2,4.38 5.17,6.26 1.8,1.71 3.66,3.42 5.93,4.41 2.26,0.99 6.43,1.25 8.5,-0.11z"/>
  </g>
  <g id="_105553414357440">
   <g>
    <path class="fil3" d="M380.06 199.83c0,0 -0.03,0.03 -0.11,0.09 -0.08,0.07 -0.19,0.15 -0.32,0.25 -0.31,0.24 -0.73,0.55 -1.27,0.95 -0.28,0.21 -0.59,0.44 -0.92,0.68 -0.33,0.26 -0.68,0.55 -1.06,0.86 -0.74,0.63 -1.63,1.3 -2.52,2.15 -0.46,0.41 -0.93,0.85 -1.43,1.3 -0.49,0.45 -0.97,0.96 -1.48,1.47 -1.04,1 -2.05,2.17 -3.14,3.38 -2.1,2.47 -4.25,5.33 -6.24,8.51 -1.96,3.2 -3.55,6.4 -4.82,9.39 -0.6,1.51 -1.19,2.93 -1.62,4.31 -0.23,0.69 -0.47,1.34 -0.66,1.99 -0.18,0.64 -0.35,1.26 -0.52,1.85 -0.36,1.18 -0.56,2.27 -0.79,3.22 -0.1,0.48 -0.21,0.92 -0.3,1.33 -0.07,0.41 -0.13,0.79 -0.19,1.13 -0.12,0.66 -0.21,1.18 -0.28,1.56 -0.04,0.16 -0.06,0.29 -0.08,0.4 -0.02,0.09 -0.04,0.14 -0.04,0.14 -0.01,0 0,-0.05 0.01,-0.14 0.01,-0.11 0.03,-0.25 0.05,-0.41 0.06,-0.38 0.13,-0.91 0.23,-1.57 0.05,-0.34 0.11,-0.72 0.17,-1.13 0.07,-0.42 0.18,-0.86 0.27,-1.34 0.22,-0.96 0.41,-2.06 0.76,-3.24 0.16,-0.59 0.33,-1.22 0.5,-1.87 0.18,-0.64 0.42,-1.3 0.64,-1.99 0.43,-1.39 1.02,-2.82 1.61,-4.34 1.26,-3.01 2.85,-6.23 4.82,-9.44 1.99,-3.2 4.16,-6.06 6.28,-8.53 1.1,-1.21 2.12,-2.38 3.17,-3.38 0.52,-0.5 1,-1.01 1.5,-1.46 0.5,-0.45 0.98,-0.88 1.44,-1.29 0.91,-0.84 1.8,-1.51 2.57,-2.12 0.38,-0.3 0.73,-0.6 1.07,-0.85 0.34,-0.24 0.65,-0.46 0.93,-0.66 0.56,-0.38 0.99,-0.68 1.31,-0.9 0.13,-0.1 0.25,-0.17 0.34,-0.23 0.08,-0.05 0.12,-0.08 0.12,-0.07z"/>
   </g>
  </g>
  <g id="_105553414346784">
   <g>
    <path class="fil3" d="M388.08 228.39c-0.01,0 -0.15,-0.02 -0.42,-0.07 -0.27,-0.05 -0.66,-0.16 -1.18,-0.24 -1.02,-0.2 -2.52,-0.43 -4.38,-0.54 -3.7,-0.24 -8.97,0.2 -14.23,2.4 -5.27,2.19 -9.29,5.61 -11.74,8.41 -1.23,1.39 -2.12,2.61 -2.7,3.48 -0.31,0.43 -0.51,0.78 -0.66,1.01 -0.16,0.23 -0.24,0.34 -0.25,0.34 -0.01,-0.01 0.06,-0.13 0.2,-0.37 0.14,-0.24 0.32,-0.6 0.61,-1.04 0.56,-0.89 1.43,-2.13 2.65,-3.56 2.42,-2.84 6.46,-6.33 11.78,-8.54 5.31,-2.21 10.63,-2.62 14.35,-2.33 1.87,0.14 3.37,0.39 4.39,0.63 0.52,0.1 0.91,0.22 1.17,0.29 0.27,0.07 0.41,0.12 0.41,0.13z"/>
   </g>
  </g>
  <g id="_105553414354592">
   <g>
    <path class="fil3" d="M365.72 181.34c0.01,0.01 0,0.06 -0.02,0.16 -0.03,0.12 -0.06,0.28 -0.1,0.47 -0.09,0.42 -0.23,1.02 -0.4,1.77 -0.35,1.54 -0.88,3.76 -1.55,6.5 -1.33,5.49 -3.27,13.04 -5.29,21.41 -1,4.18 -1.91,8.18 -2.69,11.83 -0.77,3.65 -1.42,6.94 -1.91,9.72 -0.26,1.39 -0.46,2.65 -0.64,3.75 -0.19,1.11 -0.34,2.06 -0.45,2.84 -0.12,0.77 -0.22,1.37 -0.28,1.8 -0.04,0.19 -0.06,0.34 -0.08,0.46 -0.02,0.11 -0.04,0.16 -0.04,0.16 -0.01,0 0,-0.05 0.01,-0.16 0.01,-0.12 0.03,-0.28 0.05,-0.47 0.05,-0.43 0.13,-1.04 0.23,-1.8 0.09,-0.79 0.22,-1.74 0.4,-2.85 0.17,-1.11 0.35,-2.37 0.6,-3.76 0.46,-2.79 1.1,-6.09 1.85,-9.74 0.77,-3.66 1.67,-7.66 2.68,-11.85 2.02,-8.37 3.99,-15.92 5.37,-21.39 0.69,-2.72 1.24,-4.93 1.64,-6.48 0.19,-0.74 0.34,-1.33 0.45,-1.76 0.05,-0.18 0.09,-0.33 0.12,-0.45 0.03,-0.1 0.05,-0.16 0.05,-0.16z"/>
   </g>
  </g>
  <g id="_105553414352000">
   <g>
    <path class="fil3" d="M351.82 241.38c0,0 -0.02,-0.04 -0.04,-0.12 -0.02,-0.1 -0.05,-0.23 -0.08,-0.37 -0.07,-0.36 -0.17,-0.83 -0.3,-1.44 -0.26,-1.24 -0.6,-3.05 -0.98,-5.3 -0.78,-4.48 -1.7,-10.7 -2.27,-17.62 -0.27,-3.47 -0.42,-6.77 -0.49,-9.78 -0.05,-3.01 -0.02,-5.72 0.07,-8 0.03,-1.13 0.1,-2.16 0.15,-3.06 0.05,-0.9 0.11,-1.68 0.17,-2.31 0.06,-0.62 0.1,-1.11 0.14,-1.46 0.01,-0.15 0.03,-0.28 0.04,-0.38 0.01,-0.09 0.02,-0.13 0.02,-0.13 0.01,0 0.01,0.05 0.01,0.13 -0.01,0.1 -0.01,0.23 -0.02,0.38 -0.02,0.36 -0.04,0.85 -0.08,1.46 -0.04,0.64 -0.09,1.41 -0.12,2.32 -0.03,0.9 -0.09,1.92 -0.11,3.06 -0.07,2.27 -0.07,4.98 -0.01,7.98 0.08,3.01 0.24,6.31 0.52,9.76 0.56,6.91 1.45,13.13 2.18,17.62 0.36,2.25 0.67,4.06 0.89,5.31 0.1,0.61 0.19,1.09 0.25,1.44 0.02,0.16 0.04,0.28 0.05,0.38 0.01,0.09 0.02,0.13 0.01,0.13z"/>
   </g>
  </g>
  <g id="_105553414350176">
   <g>
    <path class="fil3" d="M352.27 242.69c-0.01,0 -0.06,-0.12 -0.16,-0.36 -0.1,-0.26 -0.23,-0.6 -0.4,-1.03 -0.08,-0.23 -0.18,-0.48 -0.28,-0.75 -0.12,-0.27 -0.25,-0.56 -0.39,-0.87 -0.14,-0.32 -0.29,-0.65 -0.44,-1 -0.16,-0.36 -0.36,-0.71 -0.55,-1.1 -0.2,-0.38 -0.41,-0.78 -0.62,-1.2 -0.24,-0.41 -0.48,-0.83 -0.74,-1.27 -0.48,-0.88 -1.11,-1.77 -1.72,-2.73 -1.3,-1.87 -2.82,-3.85 -4.56,-5.83 -1.75,-1.95 -3.54,-3.7 -5.23,-5.23 -0.87,-0.74 -1.67,-1.47 -2.47,-2.09 -0.4,-0.31 -0.78,-0.62 -1.15,-0.91 -0.38,-0.28 -0.74,-0.54 -1.09,-0.8 -0.68,-0.52 -1.33,-0.96 -1.9,-1.34 -0.56,-0.39 -1.05,-0.71 -1.47,-0.96 -0.38,-0.25 -0.69,-0.44 -0.93,-0.59 -0.22,-0.14 -0.33,-0.22 -0.32,-0.23 0,-0.01 0.12,0.05 0.35,0.18 0.24,0.14 0.56,0.32 0.96,0.54 0.43,0.24 0.93,0.55 1.5,0.93 0.58,0.37 1.24,0.79 1.93,1.31 0.35,0.25 0.72,0.51 1.1,0.79 0.38,0.29 0.76,0.59 1.16,0.9 0.82,0.61 1.62,1.34 2.5,2.07 1.71,1.52 3.51,3.28 5.27,5.24 1.75,1.99 3.28,3.99 4.57,5.87 0.6,0.97 1.23,1.87 1.71,2.76 0.25,0.45 0.49,0.87 0.72,1.28 0.21,0.43 0.41,0.83 0.61,1.22 0.18,0.39 0.38,0.75 0.53,1.11 0.15,0.36 0.29,0.7 0.43,1.02 0.13,0.31 0.25,0.61 0.37,0.88 0.09,0.27 0.18,0.53 0.26,0.76 0.14,0.44 0.26,0.79 0.35,1.06 0.07,0.24 0.11,0.37 0.1,0.37z"/>
   </g>
  </g>
  <g id="_105553414350112">
   <g>
    <path class="fil3" d="M377.82 211.78c-0.01,0.04 -0.74,0.04 -1.92,0.11 -1.17,0.06 -2.8,0.22 -4.57,0.55 -1.76,0.34 -3.33,0.79 -4.45,1.16 -1.12,0.37 -1.8,0.64 -1.82,0.6 -0.01,-0.02 0.15,-0.11 0.45,-0.25 0.3,-0.14 0.75,-0.33 1.3,-0.54 1.11,-0.42 2.69,-0.91 4.47,-1.25 1.79,-0.34 3.43,-0.46 4.62,-0.47 0.59,-0.01 1.07,0 1.4,0.02 0.33,0.03 0.52,0.05 0.52,0.07z"/>
   </g>
  </g>
  <g id="_105553414342016">
   <g>
    <path class="fil15" d="M382.38 234.08c-0.08,0.04 -0.77,-1.93 -2.49,-3.76 -1.7,-1.85 -3.61,-2.68 -3.56,-2.76 0.01,-0.03 0.5,0.13 1.23,0.54 0.72,0.41 1.67,1.09 2.54,2.03 0.87,0.93 1.48,1.93 1.83,2.68 0.36,0.76 0.48,1.26 0.45,1.27z"/>
   </g>
  </g>
  <g id="_105553414350208">
   <g>
    <path class="fil3" d="M366.81 189.71c0.06,0.06 -1.06,1.16 -2.27,2.66 -1.23,1.49 -2.08,2.81 -2.16,2.76 -0.06,-0.03 0.7,-1.43 1.94,-2.94 1.23,-1.51 2.44,-2.54 2.49,-2.48z"/>
   </g>
  </g>
  <g id="_105553414351712">
   <g>
    <path class="fil3" d="M363.15 183.39c0.08,-0.01 0.33,1.06 0.55,2.39 0.23,1.33 0.35,2.42 0.27,2.44 -0.07,0.01 -0.32,-1.06 -0.55,-2.39 -0.22,-1.33 -0.34,-2.43 -0.27,-2.44z"/>
   </g>
  </g>
  <g id="_105553414344992">
   <g>
    <path class="fil3" d="M351.83 203.21c0.07,0.04 -0.72,1.71 -1.77,3.73 -1.05,2.02 -1.96,3.63 -2.03,3.6 -0.07,-0.04 0.73,-1.71 1.77,-3.73 1.05,-2.02 1.96,-3.64 2.03,-3.6z"/>
   </g>
  </g>
  <g id="_105553414345056">
   <g>
    <path class="fil3" d="M345.09 196.48c0.07,-0.03 0.74,1.18 1.5,2.7 0.76,1.52 1.32,2.79 1.25,2.82 -0.07,0.04 -0.75,-1.17 -1.5,-2.69 -0.76,-1.53 -1.32,-2.79 -1.25,-2.83z"/>
   </g>
  </g>
  <g id="_105553414352448">
   <g>
    <path class="fil3" d="M335.18 219.49c-0.01,0.09 -1.22,-0.15 -2.71,-0.25 -1.5,-0.11 -2.73,-0.05 -2.73,-0.13 -0.01,-0.07 1.22,-0.27 2.75,-0.15 1.52,0.1 2.71,0.46 2.69,0.53z"/>
   </g>
  </g>
  <g id="_105553414356608">
   <path class="fil3" d="M341.95 239.84l3.37 17.72c0.22,1.17 1.25,2.02 2.44,2.02l9.95 0c1.22,0 2.26,-0.88 2.45,-2.08l2.93 -17.66 -21.14 0z"/>
  </g>
  <g id="_105553414349824">
   <polygon class="fil13" points="343.04,245.6 362.08,245.6 363.09,239.84 341.95,239.84 "/>
  </g>
  <g id="_105553414339264">
   <polygon class="fil8" points="343.04,245.6 343.44,247.7 361.79,247.7 362.08,245.6 "/>
  </g>
  <g id="_105553414329696">
   <g>
    <path class="fil10" d="M280.43 242.68l0.31 10.83c0,0 11.11,3.33 11.36,5.33l-20.99 1.34 -1.16 -16.86 10.48 -0.64z"/>
   </g>
  </g>
  <g id="_105553414473280">
   <g>
    <g>
     <path class="fil10" d="M274.19 253.01c-0.4,0.14 -0.65,0.62 -0.53,1.02 0.12,0.4 0.6,0.66 1,0.53 0.4,-0.13 0.72,-0.69 0.56,-1.07 -0.17,-0.39 -0.75,-0.67 -1.11,-0.44l0.08 -0.04z"/>
    </g>
   </g>
  </g>
  <g id="_105553414486688">
   <g>
    <path class="fil16" d="M271.11 260.18l-0.05 -1.71 20.14 -0.64c0,0 0.96,0.34 0.9,1.01l-20.99 1.34z"/>
   </g>
  </g>
  <g id="_105553414472096">
   <g>
    <g>
     <path class="fil10" d="M281.07 253.38c0,0.1 -0.51,0.18 -0.99,0.54 -0.49,0.35 -0.73,0.81 -0.82,0.78 -0.1,-0.02 0.02,-0.64 0.61,-1.07 0.59,-0.43 1.21,-0.35 1.2,-0.25z"/>
    </g>
   </g>
  </g>
  <g id="_105553414170624">
   <g>
    <g>
     <path class="fil10" d="M283.33 254.15c0.03,0.1 -0.41,0.3 -0.73,0.76 -0.33,0.44 -0.39,0.92 -0.49,0.92 -0.09,0.02 -0.2,-0.58 0.21,-1.13 0.4,-0.57 1,-0.65 1.01,-0.55z"/>
    </g>
   </g>
  </g>
  <g id="_105553414267936">
   <g>
    <g>
     <path class="fil10" d="M284.75 256.7c-0.1,0.03 -0.27,-0.47 -0.04,-1.05 0.22,-0.58 0.69,-0.83 0.74,-0.75 0.06,0.08 -0.23,0.4 -0.41,0.88 -0.19,0.47 -0.19,0.91 -0.29,0.92z"/>
    </g>
   </g>
  </g>
  <g id="_105553417165600">
   <g>
    <g>
     <path class="fil10" d="M280.73 250.92c-0.04,0.09 -0.52,-0.02 -1.1,0.06 -0.58,0.06 -1.01,0.29 -1.07,0.2 -0.07,-0.07 0.35,-0.47 1.03,-0.55 0.68,-0.09 1.18,0.21 1.14,0.29z"/>
    </g>
   </g>
  </g>
  <g id="_105553417166560">
   <g>
    <path class="fil10" d="M280.62 248.73c0.01,0.05 -0.39,0.14 -1.05,0.07 -0.32,-0.04 -0.71,-0.12 -1.12,-0.27 -0.2,-0.08 -0.41,-0.17 -0.62,-0.28 -0.1,-0.06 -0.22,-0.11 -0.34,-0.23 -0.12,-0.1 -0.2,-0.37 -0.08,-0.54 0.1,-0.17 0.29,-0.25 0.44,-0.27 0.15,-0.01 0.28,0.01 0.39,0.03 0.24,0.05 0.47,0.11 0.67,0.19 0.42,0.15 0.76,0.36 1.01,0.57 0.52,0.42 0.71,0.79 0.67,0.81 -0.04,0.04 -0.3,-0.26 -0.82,-0.6 -0.26,-0.17 -0.58,-0.35 -0.97,-0.47 -0.19,-0.07 -0.4,-0.12 -0.61,-0.15 -0.23,-0.04 -0.42,-0.03 -0.47,0.07 -0.02,0.04 -0.02,0.05 0.03,0.11 0.05,0.06 0.15,0.11 0.25,0.17 0.19,0.11 0.38,0.2 0.57,0.28 0.38,0.16 0.74,0.26 1.04,0.33 0.62,0.13 1.01,0.13 1.01,0.18z"/>
   </g>
  </g>
  <g id="_105553411539360">
   <g>
    <path class="fil10" d="M280.5 248.89c-0.03,0.02 -0.26,-0.34 -0.34,-1 -0.04,-0.33 -0.03,-0.73 0.07,-1.16 0.05,-0.21 0.12,-0.43 0.23,-0.65 0.1,-0.22 0.24,-0.5 0.63,-0.58 0.21,-0.02 0.39,0.13 0.46,0.27 0.08,0.14 0.1,0.26 0.13,0.38 0.06,0.24 0.07,0.48 0.05,0.71 -0.04,0.45 -0.2,0.83 -0.38,1.11 -0.38,0.57 -0.8,0.72 -0.81,0.69 -0.04,-0.05 0.31,-0.27 0.59,-0.82 0.14,-0.26 0.25,-0.61 0.27,-1.01 0.01,-0.19 -0.01,-0.4 -0.06,-0.6 -0.05,-0.22 -0.14,-0.4 -0.22,-0.37 -0.11,0.01 -0.27,0.18 -0.35,0.37 -0.09,0.19 -0.17,0.39 -0.22,0.58 -0.11,0.39 -0.14,0.76 -0.14,1.07 0.01,0.61 0.14,0.99 0.09,1.01z"/>
   </g>
  </g>
  <path class="fil10" d="M236.02 242.2l-1.26 13.92 -4.18 10.72c-0.3,0.77 0.12,1.64 0.91,1.89 0.44,0.14 0.92,0.05 1.29,-0.23 2.35,-1.79 10.97,-8.42 11,-9.44 0.04,-1.19 2.31,-14.6 2.31,-14.6l-10.07 -2.26z"/>
  <path class="fil17" d="M231.49 268.73l12.4 -10.61 -0.07 0.59c-0.05,0.51 -0.29,0.98 -0.66,1.33 -1,0.94 -3.82,3.46 -10.34,8.47 -0.37,0.29 -0.88,0.37 -1.33,0.22z"/>
  <g id="_105553409925504">
   <path class="fil17" d="M241.55 253.32c-0.37,0.2 -0.55,0.71 -0.36,1.09 0.18,0.39 0.7,0.57 1.08,0.37 0.38,-0.19 0.61,-0.8 0.38,-1.16 -0.23,-0.36 -0.85,-0.54 -1.17,-0.26l0.07 -0.04z"/>
  </g>
  <g id="_105553414546272">
   <path class="fil3" d="M235.36 263.02c-0.09,0.03 -0.32,-0.73 -1.1,-1.22 -0.76,-0.5 -1.55,-0.4 -1.56,-0.48 -0.01,-0.04 0.18,-0.13 0.51,-0.14 0.33,-0.01 0.79,0.09 1.22,0.37 0.42,0.27 0.71,0.65 0.83,0.95 0.13,0.31 0.13,0.52 0.1,0.52z"/>
  </g>
  <g id="_105553414551392">
   <path class="fil3" d="M234.16 264.77c-0.08,0.05 -0.47,-0.45 -1.17,-0.74 -0.68,-0.3 -1.32,-0.24 -1.33,-0.33 -0.03,-0.07 0.67,-0.29 1.45,0.05 0.79,0.33 1.12,0.99 1.05,1.02z"/>
  </g>
  <g id="_105553414539872">
   <path class="fil3" d="M237.47 260.85c-0.07,0.06 -0.68,-0.72 -1.72,-1.26 -1.03,-0.56 -2.01,-0.62 -2,-0.71 -0.02,-0.08 1.04,-0.16 2.15,0.44 1.11,0.58 1.64,1.5 1.57,1.53z"/>
  </g>
  <g id="_105553414545568">
   <path class="fil3" d="M238.21 256.65c-0.05,0.08 -0.78,-0.33 -1.77,-0.48 -1,-0.16 -1.82,0 -1.84,-0.09 -0.03,-0.07 0.82,-0.39 1.88,-0.21 1.07,0.16 1.78,0.72 1.73,0.78z"/>
  </g>
  <g id="_105553414543808">
   <path class="fil3" d="M238.68 252.57c-0.05,0.08 -0.77,-0.47 -1.83,-0.54 -1.06,-0.1 -1.85,0.33 -1.89,0.25 -0.02,-0.03 0.15,-0.19 0.49,-0.34 0.34,-0.15 0.85,-0.26 1.43,-0.22 0.57,0.05 1.06,0.24 1.37,0.44 0.31,0.2 0.46,0.39 0.43,0.41z"/>
  </g>
  <g id="_105553414538624">
   <path class="fil3" d="M236.96 251.25c-0.01,0 -0.02,-0.19 0.04,-0.52 0.07,-0.34 0.23,-0.82 0.58,-1.33 0.18,-0.24 0.37,-0.56 0.78,-0.7 0.2,-0.07 0.49,0 0.63,0.2 0.14,0.2 0.17,0.44 0.15,0.66 -0.12,0.88 -0.97,1.64 -1.98,1.66 -1,-0.01 -1.84,-0.68 -2.15,-1.48 -0.06,-0.21 -0.09,-0.46 0.04,-0.68 0.13,-0.23 0.43,-0.29 0.62,-0.23 0.41,0.11 0.64,0.37 0.86,0.58 0.44,0.44 0.69,0.87 0.83,1.18 0.14,0.32 0.17,0.5 0.16,0.51 -0.06,0.03 -0.28,-0.72 -1.14,-1.54 -0.22,-0.19 -0.47,-0.42 -0.76,-0.48 -0.14,-0.03 -0.27,0.01 -0.34,0.12 -0.07,0.11 -0.06,0.28 0,0.45 0.26,0.66 1.03,1.27 1.88,1.26 0.85,0 1.6,-0.68 1.7,-1.39 0.02,-0.17 -0.01,-0.34 -0.09,-0.45 -0.07,-0.11 -0.21,-0.16 -0.34,-0.12 -0.28,0.08 -0.5,0.35 -0.67,0.57 -0.71,0.96 -0.74,1.75 -0.8,1.73z"/>
  </g>
  <polygon class="fil3" points="232.85,142.75 232.03,251.3 247.29,252.27 250.51,161.6 268.8,251.76 282.68,250.3 267.92,142.73 "/>
  <g id="_105553414541440">
   <g>
    <g>
     <g>
      <g>
       <g>
        <g>
         <g>
          <g>
           <g>
            <g>
             <g>
              <g>
               <path class="fil18" d="M251.41 54.61c-5.15,-0.4 -9.64,3.5 -9.95,8.66 -0.26,4.3 -0.49,8.95 -0.47,11.29 0.07,5.02 5.09,5.8 5.09,5.8 0,0 -0.12,1.49 -0.26,3.34 -0.28,3.72 2.57,6.94 6.3,7.11 3.65,0.17 6.75,-2.66 6.91,-6.31l0.91 -20.25c0.22,-4.99 -3.55,-9.25 -8.53,-9.64z"/>
              </g>
             </g>
            </g>
           </g>
          </g>
         </g>
        </g>
       </g>
       <g>
        <g>
         <g>
          <g>
           <g>
            <g>
             <g>
              <g>
               <path class="fil19" d="M246.07 80.29c0,0 3.18,0.26 6.55,-1.86 0,0 -1.54,3.62 -6.56,3.16l0.01 -1.3z"/>
              </g>
             </g>
            </g>
           </g>
          </g>
         </g>
        </g>
       </g>
      </g>
     </g>
    </g>
    <g>
     <g>
      <g>
       <g>
        <g>
         <g>
          <g>
           <g>
            <g>
             <path class="fil18" d="M259.48 65.98c0.08,-0.04 3.45,-1.02 3.34,2.41 -0.11,3.44 -3.54,2.62 -3.54,2.52 0,-0.1 0.2,-4.93 0.2,-4.93z"/>
            </g>
           </g>
          </g>
         </g>
        </g>
       </g>
      </g>
     </g>
     <g>
      <g>
       <g>
        <g>
         <g>
          <g>
           <g>
            <g>
             <g>
              <path class="fil19" d="M260.37 69.64c0.02,-0.01 0.06,0.05 0.16,0.1 0.1,0.04 0.27,0.08 0.45,0.02 0.36,-0.12 0.69,-0.69 0.72,-1.31 0.02,-0.31 -0.03,-0.61 -0.14,-0.86 -0.09,-0.25 -0.25,-0.44 -0.43,-0.47 -0.18,-0.05 -0.31,0.05 -0.36,0.15 -0.05,0.09 -0.03,0.16 -0.05,0.17 -0.01,0.01 -0.07,-0.06 -0.04,-0.2 0.02,-0.07 0.06,-0.15 0.15,-0.21 0.08,-0.07 0.2,-0.1 0.33,-0.08 0.26,0.03 0.49,0.28 0.61,0.55 0.12,0.28 0.2,0.62 0.17,0.97 -0.04,0.69 -0.42,1.32 -0.92,1.45 -0.24,0.06 -0.44,-0.02 -0.54,-0.11 -0.1,-0.08 -0.12,-0.16 -0.11,-0.17z"/>
             </g>
            </g>
           </g>
          </g>
         </g>
        </g>
       </g>
      </g>
     </g>
    </g>
    <g>
     <g>
      <g>
       <g>
        <g>
         <g>
          <g>
           <g>
            <g>
             <g>
              <g>
               <g>
                <g>
                 <g>
                  <path class="fil3" d="M242.73 66.47c-0.01,0.38 0.3,0.7 0.7,0.72 0.39,0.02 0.72,-0.27 0.74,-0.64 0.01,-0.38 -0.3,-0.71 -0.7,-0.73 -0.39,-0.02 -0.72,0.27 -0.74,0.65z"/>
                 </g>
                </g>
               </g>
              </g>
             </g>
            </g>
           </g>
          </g>
          <g>
           <g>
            <g>
             <g>
              <g>
               <g>
                <g>
                 <g>
                  <g>
                   <path class="fil3" d="M242.75 65.06c0.09,0.1 0.64,-0.31 1.41,-0.3 0.77,-0.01 1.34,0.38 1.42,0.29 0.04,-0.04 -0.05,-0.21 -0.3,-0.39 -0.24,-0.18 -0.65,-0.35 -1.13,-0.35 -0.48,0 -0.89,0.18 -1.12,0.36 -0.24,0.18 -0.32,0.35 -0.28,0.39z"/>
                  </g>
                 </g>
                </g>
               </g>
              </g>
             </g>
            </g>
           </g>
          </g>
         </g>
         <g>
          <g>
           <g>
            <g>
             <g>
              <g>
               <g>
                <g>
                 <g>
                  <path class="fil3" d="M250.33 66.47c-0.02,0.38 0.29,0.7 0.69,0.72 0.39,0.02 0.72,-0.27 0.74,-0.64 0.01,-0.38 -0.3,-0.71 -0.69,-0.73 -0.4,-0.02 -0.73,0.27 -0.74,0.65z"/>
                 </g>
                </g>
               </g>
              </g>
             </g>
            </g>
           </g>
          </g>
          <g>
           <g>
            <g>
             <g>
              <g>
               <g>
                <g>
                 <g>
                  <g>
                   <path class="fil3" d="M250.34 65.21c0.09,0.09 0.64,-0.31 1.41,-0.31 0.77,-0.01 1.34,0.39 1.42,0.29 0.04,-0.04 -0.05,-0.21 -0.29,-0.39 -0.25,-0.18 -0.66,-0.35 -1.14,-0.35 -0.48,0 -0.89,0.18 -1.12,0.36 -0.24,0.19 -0.32,0.35 -0.28,0.4z"/>
                  </g>
                 </g>
                </g>
               </g>
              </g>
             </g>
            </g>
           </g>
          </g>
         </g>
         <g>
          <g>
           <g>
            <g>
             <g>
              <g>
               <g>
                <g>
                 <g>
                  <path class="fil3" d="M247.54 70.93c0.01,-0.04 -0.47,-0.12 -1.25,-0.22 -0.2,-0.02 -0.39,-0.06 -0.42,-0.2 -0.05,-0.14 0.04,-0.35 0.13,-0.58 0.19,-0.48 0.38,-0.98 0.59,-1.5 0.81,-2.14 1.39,-3.9 1.31,-3.93 -0.09,-0.03 -0.82,1.67 -1.63,3.81 -0.19,0.53 -0.38,1.03 -0.56,1.51 -0.07,0.23 -0.2,0.48 -0.1,0.78 0.05,0.14 0.2,0.25 0.33,0.29 0.12,0.03 0.23,0.04 0.33,0.04 0.78,0.04 1.27,0.05 1.27,0z"/>
                 </g>
                </g>
               </g>
              </g>
             </g>
            </g>
           </g>
          </g>
         </g>
         <g>
          <g>
           <g>
            <g>
             <g>
              <g>
               <g>
                <g>
                 <g>
                  <path class="fil3" d="M249.81 71.47c-0.12,-0.01 -0.12,0.83 -0.84,1.42 -0.72,0.6 -1.61,0.51 -1.62,0.62 -0.01,0.06 0.2,0.17 0.58,0.18 0.37,0.01 0.91,-0.11 1.35,-0.47 0.44,-0.37 0.63,-0.86 0.65,-1.2 0.04,-0.35 -0.06,-0.56 -0.12,-0.55z"/>
                 </g>
                </g>
               </g>
              </g>
             </g>
            </g>
           </g>
          </g>
         </g>
        </g>
       </g>
      </g>
      <g>
       <g>
        <g>
         <g>
          <g>
           <g>
            <g>
             <g>
              <path class="fil3" d="M250.15 62.18c0.07,0.21 0.84,0.11 1.75,0.22 0.91,0.09 1.64,0.36 1.76,0.17 0.05,-0.09 -0.08,-0.29 -0.37,-0.49 -0.29,-0.21 -0.76,-0.4 -1.31,-0.46 -0.54,-0.06 -1.04,0.03 -1.37,0.16 -0.33,0.14 -0.5,0.3 -0.46,0.4z"/>
             </g>
            </g>
           </g>
          </g>
         </g>
        </g>
       </g>
      </g>
      <g>
       <g>
        <g>
         <g>
          <g>
           <g>
            <g>
             <g>
              <path class="fil3" d="M243.04 62.83c0.13,0.17 0.67,-0.01 1.31,-0.02 0.63,-0.03 1.18,0.12 1.3,-0.06 0.06,-0.09 -0.03,-0.27 -0.27,-0.43 -0.23,-0.17 -0.62,-0.3 -1.06,-0.29 -0.44,0.01 -0.82,0.17 -1.04,0.35 -0.23,0.18 -0.3,0.36 -0.24,0.45z"/>
             </g>
            </g>
           </g>
          </g>
         </g>
        </g>
       </g>
      </g>
     </g>
    </g>
   </g>
  </g>
  <path class="fil3" d="M259.87 65.82c0.04,0.53 0.03,1.13 -0.09,1.65 -0.11,0.51 -0.4,1.02 -0.87,1.25 -0.87,0.43 -1.95,-0.23 -2.34,-1.11 -0.38,-0.88 -0.28,-1.89 -0.19,-2.85 0.12,-1.31 0.2,-2.64 -0.06,-3.94 -0.25,-1.29 -0.85,-2.55 -1.88,-3.37 -1.03,-0.82 -2.52,-1.11 -3.7,-0.53 -0.73,0.36 -1.28,1 -1.96,1.44 -0.61,0.4 -1.35,0.64 -2.08,0.52 -0.72,-0.11 -1.4,-0.62 -1.59,-1.32 -0.21,-0.77 0.2,-1.61 0.81,-2.11 0.62,-0.5 1.42,-0.73 2.2,-0.88 2.17,-0.41 4.47,-0.31 6.52,0.51 2.05,0.82 3.87,2.37 4.73,4.4 1,2.35 0.87,3.79 0.58,6.34l-0.08 0z"/>
  <path class="fil18" d="M189.88 92.13l7.33 1.48 10.08 6.42 -3.44 6.54c0,0 -3.54,-0.99 -4.58,-1.9 -1.03,-0.91 -2.18,-1.02 -2.18,-1.02 0,0 0.07,1.62 -1.15,1.34 -1.23,-0.28 -3.28,-0.63 -2.93,-2.35 0,0 -0.91,-0.25 -0.86,-1.46 0,0 -1.01,-0.07 -0.74,-1.75 0.27,-1.68 1.49,-3.84 4.83,-3.23 0.17,0.03 0.4,-0.3 0.1,-0.41l-5.17 -1.22c0,0 -3.24,-1.28 -1.29,-2.44z"/>
  <path class="fil19" d="M193.5 99.35c0.01,-0.04 0.48,0.08 1.23,0.3 0.37,0.13 0.8,0.21 1.31,0.44 0.24,0.13 0.5,0.35 0.59,0.68 0.1,0.35 -0.08,0.72 -0.35,0.92 -0.57,0.43 -1.24,0.3 -1.72,0.23 -0.52,-0.08 -0.98,-0.17 -1.36,-0.28 -0.75,-0.21 -1.19,-0.44 -1.17,-0.47 0.02,-0.05 0.47,0.1 1.23,0.26 0.37,0.08 0.83,0.15 1.33,0.21 0.26,0.02 0.52,0.07 0.78,0.05 0.25,-0.01 0.53,-0.08 0.72,-0.24 0.2,-0.16 0.3,-0.39 0.25,-0.6 -0.05,-0.22 -0.23,-0.39 -0.44,-0.5 -0.42,-0.22 -0.89,-0.35 -1.24,-0.49 -0.73,-0.28 -1.18,-0.47 -1.16,-0.51z"/>
  <path class="fil19" d="M195.29 98.4c-0.01,0.09 -0.45,0.1 -0.88,0.38 -0.43,0.27 -0.63,0.66 -0.72,0.63 -0.08,-0.01 0.02,-0.56 0.56,-0.89 0.53,-0.34 1.07,-0.2 1.04,-0.12z"/>
  <path class="fil19" d="M196.06 101.62c0.01,-0.02 0.08,0 0.17,0.09 0.11,0.1 0.13,0.32 0.16,0.5 0.03,0.23 0,0.53 -0.21,0.79 -0.22,0.27 -0.64,0.33 -0.95,0.27 -0.63,-0.09 -1.2,-0.18 -1.61,-0.32 -0.4,-0.13 -0.63,-0.28 -0.61,-0.31 0.02,-0.04 0.26,0.03 0.66,0.1 0.4,0.07 0.97,0.13 1.59,0.23 0.3,0.04 0.56,0 0.7,-0.17 0.16,-0.16 0.22,-0.38 0.21,-0.57 0,-0.22 0.02,-0.36 -0.04,-0.45 -0.05,-0.09 -0.09,-0.15 -0.07,-0.16z"/>
  <path class="fil19" d="M196 102.96c0,-0.03 0.14,-0.1 0.36,-0.04 0.22,0.07 0.47,0.26 0.66,0.53 0.22,0.33 0.14,0.67 0.08,0.86 -0.08,0.2 -0.16,0.3 -0.2,0.29 -0.04,-0.02 -0.03,-0.15 -0.02,-0.33 0.01,-0.19 0.02,-0.45 -0.12,-0.64 -0.16,-0.23 -0.34,-0.41 -0.49,-0.5 -0.14,-0.1 -0.26,-0.12 -0.27,-0.17z"/>
  <path class="fil18" d="M201.64 99.17l-3.54 -0.14 -3.71 0.72c0,0 -0.31,0.67 1.41,1.13 1.72,0.46 3.31,0.16 3.31,0.16 0,0 1.53,2.24 3.52,2.75l-0.99 -4.62z"/>
  <path class="fil19" d="M202.63 103.79c0,0.01 -0.11,-0.01 -0.32,-0.06 -0.21,-0.06 -0.51,-0.17 -0.87,-0.37 -0.71,-0.39 -1.61,-1.13 -2.44,-2.24l0.13 0.06c-1.19,0.18 -2.64,0.18 -4.07,-0.39 -0.2,-0.09 -0.41,-0.2 -0.58,-0.37 -0.17,-0.16 -0.34,-0.41 -0.23,-0.73l0.02 -0.07 0.09 -0.02c1.36,-0.26 2.63,-0.49 3.72,-0.7l0.01 0 0.01 0c1.08,0.06 1.96,0.11 2.58,0.16 0.61,0.05 0.96,0.09 0.96,0.11 0,0.03 -0.35,0.04 -0.97,0.03 -0.61,0 -1.5,-0.02 -2.58,-0.05l0.03 0c-1.08,0.22 -2.34,0.47 -3.71,0.75l0.12 -0.09c-0.04,0.09 0.03,0.27 0.16,0.39 0.13,0.13 0.31,0.23 0.5,0.31 1.32,0.53 2.76,0.55 3.89,0.4l0.09 -0.01 0.05 0.06c0.78,1.09 1.64,1.85 2.31,2.26 0.66,0.43 1.12,0.53 1.1,0.57z"/>
  <path class="fil19" d="M197.32 97.1c-0.04,0.07 -0.38,-0.08 -0.64,-0.45 -0.26,-0.36 -0.29,-0.73 -0.21,-0.75 0.08,-0.03 0.24,0.26 0.46,0.57 0.22,0.32 0.44,0.56 0.39,0.63z"/>
  <path class="fil2" d="M236.15 143.59c6.08,2.62 13.2,3.4 21.24,2.55l5.88 -59.93 -4.17 -3.2 -9.62 7.15 -3.29 -6.89 -7.72 11.09 -2.32 49.23z"/>
  <path class="fil3" d="M246.25 146.47c-0.01,0 -0.02,-0.04 -0.03,-0.14 -0.02,-0.11 -0.04,-0.25 -0.07,-0.42 -0.06,-0.4 -0.13,-0.95 -0.23,-1.64 -0.06,-0.71 -0.1,-1.58 -0.17,-2.6 -0.05,-1.01 -0.05,-2.17 -0.08,-3.45 -0.03,-5.12 0.31,-12.18 0.88,-19.96 0.57,-7.79 1.28,-14.82 1.84,-19.9 0.29,-2.54 0.54,-4.6 0.74,-6.01 0.09,-0.71 0.18,-1.26 0.24,-1.63 0.03,-0.17 0.06,-0.31 0.08,-0.42 0.02,-0.1 0.03,-0.15 0.03,-0.14 0.01,0 0.01,0.05 0,0.14 -0.01,0.12 -0.03,0.26 -0.04,0.43 -0.05,0.4 -0.11,0.94 -0.19,1.63 -0.15,1.45 -0.37,3.5 -0.64,6.02 -0.51,5.09 -1.18,12.12 -1.75,19.9 -0.57,7.78 -0.95,14.83 -0.97,19.94 0.02,1.27 0,2.43 0.04,3.44 0.04,1.01 0.08,1.88 0.11,2.6 0.07,0.69 0.13,1.24 0.17,1.64 0.02,0.17 0.03,0.31 0.04,0.43 0,0.09 0,0.14 0,0.14z"/>
  <path class="fil10" d="M254.34 155.3c0,0 -4.48,-46.85 -1.7,-52.08 2.15,-4.05 5.48,-12.51 6.87,-16.13 0.42,-1.08 0.39,-2.28 -0.08,-3.34l-0.33 -0.74 4.17 3.2 8.57 4.61 -5.17 39.69 5.85 20.13 -18.18 4.66z"/>
  <path class="fil11" d="M253.19 141.74c3.64,-0.76 2.07,1.35 5.75,0.82 1.99,-0.29 2.09,-1.46 3.73,-2.62 1.64,-1.17 4.12,-2.14 6.13,-2.1l-0.82 -2.81 -15.23 0.57 0.44 6.14z"/>
  <path class="fil10" d="M232.2 93.08l1.48 37.43 -3 20.94 7.5 2.78 3.28 -57.89c0.04,-2.15 0.52,-4.27 1.42,-6.23l2.94 -6.41 -9.96 3.39 -3.66 5.99z"/>
  <path class="fil10" d="M271.84 90.82c0,0 4.7,4.06 5.75,9.53 0.77,3.98 3.04,17.97 3.67,25.15 0.39,4.46 -2.74,8.49 -7.17,9.14 -0.07,0.01 -0.13,0.02 -0.2,0.03 -6.82,0.93 -18.25,-0.36 -18.25,-0.36l1.99 -8.7c0,0 10.12,-1.46 11.93,-2.68l-2.41 -16.15c0,0 1.98,-15.5 4.69,-15.96z"/>
  <path class="fil10" d="M207.95 98.78l16.56 10.49c0,0 5.97,-17.53 9.8,-21.65l4.62 -1.57 -4.21 33.64c-0.32,1.9 -1.42,3.58 -3.04,4.62 -2.49,1.6 -5.72,1.42 -8.01,-0.44l-20.27 -16.44 4.55 -8.65z"/>
  <path class="fil3" d="M272.59 128.39c-0.05,-0.01 -0.03,-0.39 -0.1,-0.98 -0.07,-0.59 -0.29,-1.4 -0.74,-2.19 -0.45,-0.79 -1.03,-1.38 -1.51,-1.74 -0.47,-0.37 -0.81,-0.54 -0.79,-0.59 0.02,-0.03 0.39,0.07 0.92,0.41 0.53,0.33 1.18,0.93 1.65,1.77 0.48,0.83 0.67,1.7 0.69,2.32 0.02,0.63 -0.09,1 -0.12,1z"/>
  <path class="fil3" d="M270.81 129.54c-0.1,-0.02 0.36,-1.6 -0.04,-3.52 -0.37,-1.93 -1.39,-3.22 -1.3,-3.27 0.03,-0.02 0.32,0.26 0.67,0.82 0.35,0.56 0.74,1.4 0.93,2.39 0.2,0.99 0.16,1.91 0.05,2.56 -0.11,0.65 -0.27,1.03 -0.31,1.02z"/>
  <path class="fil3" d="M270.68 92.46c0.04,0.05 -0.84,0.55 -1.81,1.79 -0.98,1.23 -1.92,3.26 -2.21,5.65 -0.28,2.4 0,4.59 0.22,6.16 0.11,0.74 0.21,1.36 0.28,1.86 0.07,0.44 0.1,0.69 0.07,0.69 -0.02,0.01 -0.08,-0.23 -0.19,-0.67 -0.1,-0.43 -0.23,-1.06 -0.38,-1.84 -0.27,-1.57 -0.59,-3.79 -0.31,-6.23 0.29,-2.45 1.3,-4.53 2.35,-5.75 0.52,-0.62 1.02,-1.05 1.38,-1.31 0.37,-0.26 0.59,-0.37 0.6,-0.35z"/>
  <path class="fil11" d="M269.69 122.79c0.78,0.92 1.16,2.14 1.21,3.34 0.05,1.21 -0.21,2.41 -0.58,3.55 -0.06,0.22 -0.13,0.46 -0.01,0.65 0.15,0.24 0.54,0.22 0.75,0.03 0.22,-0.19 0.3,-0.48 0.38,-0.76 -0.15,0.16 0.06,0.43 0.27,0.42 0.22,-0.01 0.38,-0.2 0.5,-0.38 0.66,-1.03 0.61,-2.41 0.14,-3.54 -0.47,-1.14 -1.3,-2.09 -2.15,-2.98l-0.51 -0.33z"/>
  <path class="fil3" d="M227.89 115.83c-0.06,0.05 -1.09,-1.28 -2.02,-3.13 -0.95,-1.84 -1.43,-3.45 -1.35,-3.47 0.09,-0.04 0.69,1.51 1.62,3.33 0.93,1.82 1.83,3.22 1.75,3.27z"/>
  <path class="fil3" d="M225.57 117.09c-0.04,0.02 -0.21,-0.41 -0.41,-1.12 -0.21,-0.7 -0.46,-1.69 -0.67,-2.8 -0.2,-1.1 -0.32,-2.12 -0.37,-2.85 -0.06,-0.74 -0.06,-1.19 -0.01,-1.2 0.09,0 0.28,1.8 0.69,4 0.4,2.19 0.86,3.95 0.77,3.97z"/>
  <path class="fil3" d="M233.68 97.79c0.09,0 0.16,7.32 0.16,16.36 0,9.03 -0.07,16.36 -0.16,16.36 -0.08,0 -0.15,-7.33 -0.15,-16.36 0,-9.04 0.07,-16.36 0.15,-16.36z"/>
  <path class="fil3" d="M243.77 84.4c0.01,0 -0.06,0.1 -0.2,0.29 -0.15,0.21 -0.35,0.48 -0.59,0.81 -0.5,0.71 -1.23,1.75 -2,3.11 -0.77,1.36 -1.66,3.04 -2.13,5.05 -0.18,1 -0.3,2.12 -0.47,3.25 -0.49,1.19 0.68,1.96 1.64,2.61l0.24 0.16 -0.27 0.11c-0.32,0.14 -0.65,0.38 -0.97,0.63 -0.43,0.33 -0.84,0.68 -1.21,1.02l0.05 -0.12c0.19,2.36 0.59,4.6 0.86,6.63 0.29,2.01 0.54,3.83 0.76,5.36 0.2,1.49 0.36,2.7 0.48,3.58 0.04,0.4 0.08,0.72 0.11,0.98 0.02,0.22 0.03,0.33 0.02,0.34 -0.01,0 -0.03,-0.12 -0.08,-0.34 -0.04,-0.25 -0.1,-0.57 -0.17,-0.96 -0.14,-0.88 -0.33,-2.09 -0.57,-3.57 -0.24,-1.53 -0.51,-3.34 -0.82,-5.35 -0.29,-2.03 -0.7,-4.25 -0.9,-6.65l0 -0.08 0.05 -0.05c0.38,-0.34 0.79,-0.7 1.23,-1.04 0.33,-0.25 0.66,-0.5 1.05,-0.66l-0.03 0.27c-0.52,-0.33 -1.02,-0.69 -1.43,-1.16 -0.19,-0.24 -0.39,-0.51 -0.43,-0.86 -0.02,-0.08 0,-0.18 0,-0.25l0.03 -0.22 0.06 -0.42c0.18,-1.14 0.3,-2.21 0.5,-3.27 0.23,-1.03 0.61,-1.97 1,-2.81 0.39,-0.85 0.81,-1.61 1.21,-2.29 0.81,-1.35 1.56,-2.38 2.1,-3.07 0.27,-0.35 0.48,-0.61 0.64,-0.78 0.15,-0.17 0.23,-0.26 0.24,-0.25z"/>
  <path class="fil3" d="M262.14 85.5c0.01,-0.01 0.04,0.08 0.08,0.25 0.05,0.16 0.1,0.41 0.15,0.73 0.09,0.65 0.13,1.61 -0.01,2.77 -0.14,1.16 -0.47,2.52 -0.9,4 -0.4,1.48 -0.97,3.1 -1.7,4.72 -0.65,1.46 -1.34,2.83 -1.97,4.08l-0.04 0.06 -0.06 0.02c-0.5,0.1 -0.98,0.19 -1.44,0.29l0.08 -0.23c0.32,0.39 0.63,0.75 0.92,1.1l0.06 0.07 -0.04 0.08c-0.85,1.36 -1.56,2.5 -2.09,3.34 -0.23,0.37 -0.43,0.67 -0.59,0.92 -0.14,0.21 -0.22,0.31 -0.23,0.31 -0.01,-0.01 0.05,-0.13 0.17,-0.35 0.14,-0.26 0.32,-0.57 0.53,-0.95 0.5,-0.86 1.18,-2.02 1.99,-3.4l0.01 0.15c-0.3,-0.35 -0.61,-0.71 -0.94,-1.09l-0.16 -0.17 0.23 -0.05c0.46,-0.1 0.94,-0.2 1.44,-0.31l-0.1 0.08c0.62,-1.26 1.3,-2.62 1.95,-4.08 0.73,-1.61 1.29,-3.19 1.71,-4.67 0.44,-1.47 0.78,-2.81 0.95,-3.95 0.17,-1.14 0.17,-2.08 0.11,-2.72 -0.06,-0.65 -0.14,-1 -0.11,-1z"/>
  <path class="fil11" d="M227.18 115.56c-0.74,-2.11 -1.76,-4.24 -2.67,-6.29l-0.75 -0.48c-0.61,1.88 -0.38,3.94 0.28,5.8 0.06,0.16 0.15,0.35 0.32,0.41 0.22,0.07 0.45,-0.13 0.5,-0.36 0.04,-0.23 -0.04,-0.46 -0.13,-0.68 0.49,0.87 1.05,1.69 1.67,2.47 0.1,0.12 0.21,0.25 0.36,0.28 0.25,0.06 0.49,-0.17 0.54,-0.42 0.05,-0.24 -0.04,-0.49 -0.12,-0.73z"/>
  <path class="fil11" d="M239.7 117.34c-1.43,-4.04 -2.87,-8.12 -3.43,-12.37 -0.13,-0.94 -0.21,-1.91 0.04,-2.82 0.24,-0.92 0.86,-1.78 1.76,-2.08 -0.51,-0.55 -0.52,-1.48 -0.02,-2.04 0.58,0.62 1.16,1.23 1.74,1.85 -0.9,-0.01 -1.66,0.77 -1.93,1.64 -0.26,0.86 -0.14,1.79 -0.02,2.69 0.59,4.43 1.19,8.85 1.78,13.28l0.08 -0.15z"/>
  <path class="fil11" d="M258.72 103.15c0.87,-3.03 1.73,-6.06 2.6,-9.09 -0.73,1.74 -1.46,3.48 -2.19,5.22 -0.3,0.73 -0.61,1.47 -1.14,2.06 -0.52,0.59 -1.31,1.01 -2.09,0.9 0.46,0.3 0.91,0.61 1.36,0.92 -0.97,1.56 -1.93,3.28 -2.9,4.85l2.09 0.17c0.79,-1.26 1.5,-2.38 2.29,-3.64 -0.23,-0.42 -0.46,-0.84 -0.7,-1.25 0.23,-0.05 0.45,-0.09 0.68,-0.14z"/>
  <polygon class="fil2" points="245.82,83.7 245.93,82.25 248.62,86.05 249.48,90.16 251.69,86.05 259.28,81.63 259.28,85.5 257.83,89.25 255,91.43 251.76,92.85 247.9,92.13 245.57,90.82 245.06,88.09 "/>
  <path class="fil3" d="M248.43 85.99c0.05,0.02 -0.15,0.53 -0.39,1.39 -0.23,0.85 -0.51,2.07 -0.45,3.43l0.03 0.59 -0.31 -0.5c-0.06,-0.09 -0.13,-0.2 -0.19,-0.3 -0.76,-1.29 -1.12,-2.59 -1.5,-3.46 -0.36,-0.88 -0.68,-1.39 -0.64,-1.41 0.03,-0.03 0.42,0.44 0.84,1.32 0.44,0.86 0.83,2.15 1.56,3.39 0.07,0.1 0.13,0.2 0.19,0.29l-0.29 0.1c-0.06,-1.43 0.27,-2.66 0.56,-3.52 0.29,-0.85 0.56,-1.33 0.59,-1.32z"/>
  <path class="fil3" d="M259.28 84.15c0.01,0 0.02,0.05 0.02,0.15 0.01,0.11 -0.01,0.26 -0.05,0.45 -0.08,0.38 -0.34,0.91 -0.8,1.44 -0.46,0.53 -1.1,1.06 -1.86,1.57 -0.77,0.49 -1.55,1.08 -2.37,1.74 -0.73,0.58 -1.43,1.14 -2.14,1.58l-0.28 0.17 0.06 -0.32c0.12,-0.68 0.09,-1.36 0.06,-1.95 -0.03,-0.59 -0.08,-1.12 -0.12,-1.55 -0.09,-0.87 -0.15,-1.38 -0.11,-1.38 0.03,-0.01 0.15,0.49 0.29,1.36 0.06,0.43 0.14,0.95 0.19,1.55 0.04,0.6 0.1,1.28 -0.03,2.02l-0.21 -0.15c0.67,-0.43 1.37,-0.99 2.1,-1.57 0.81,-0.66 1.63,-1.27 2.4,-1.74 0.75,-0.49 1.4,-0.99 1.86,-1.48 0.46,-0.49 0.73,-0.97 0.85,-1.32 0.11,-0.36 0.11,-0.58 0.14,-0.57z"/>
  <path class="fil3" d="M268.47 135c0,0.01 -0.09,0.02 -0.25,0.04 -0.18,0.01 -0.42,0.02 -0.7,0.04 -0.62,0.03 -1.52,0.06 -2.66,0.08 -1.14,0.02 -2.52,0.03 -4.08,0.02 -0.79,-0.01 -1.62,-0.03 -2.49,-0.06 -0.43,-0.02 -0.88,-0.03 -1.33,-0.05 -0.23,-0.02 -0.46,-0.04 -0.7,-0.05l-0.35 -0.04c-0.06,-0.01 -0.12,-0.01 -0.18,-0.03 -0.04,-0.01 -0.06,-0.01 -0.1,-0.02l-0.06 -0.02c-0.01,0.01 -0.11,-0.08 -0.12,-0.13l0 -0.04 0 -0.02c0.52,-2.35 1.09,-4.93 1.69,-7.64 0.12,-0.5 0.23,-1.01 0.34,-1.5l0.02 -0.11 0.11 -0.01c4.66,-0.69 8.9,-1.38 11.91,-2.64l-0.07 0.13c-0.29,-2.09 -0.53,-3.79 -0.7,-5.01 -0.07,-0.57 -0.13,-1.02 -0.17,-1.37 -0.03,-0.31 -0.05,-0.48 -0.04,-0.48 0.01,0 0.05,0.16 0.11,0.47 0.06,0.34 0.13,0.8 0.23,1.36 0.2,1.21 0.47,2.91 0.8,4.99l0.01 0.09 -0.08 0.03c-3.03,1.32 -7.29,2.04 -11.96,2.73l0.13 -0.11c-0.11,0.49 -0.22,0.99 -0.33,1.5 -0.61,2.7 -1.19,5.28 -1.72,7.63l-0.12 -0.03c3.72,0.17 6.98,0.24 9.25,0.24 1.11,0 2,0 2.65,0 0.29,0 0.52,0 0.71,0 0.16,0 0.25,0.01 0.25,0.01z"/>
  <polygon class="fil13" points="270.38,111.76 265.22,124.26 257.63,125.61 255.59,134.75 260.61,135.04 260.57,135.38 240.89,135.94 249.22,111.76 "/>
  <polygon class="fil13" points="246.44,107.61 249.22,111.76 240.89,135.94 238.18,131.3 "/>
  <polygon class="fil20" points="270.38,111.76 267.34,108.8 246.44,107.61 249.22,111.76 "/>
  <path class="fil3" d="M249.22 111.76c0.08,0.02 -1.72,5.46 -4.02,12.14 -2.3,6.68 -4.23,12.06 -4.31,12.04 -0.08,-0.03 1.72,-5.47 4.02,-12.14 2.3,-6.68 4.23,-12.07 4.31,-12.04z"/>
  <path class="fil18" d="M257.35 126.3l-3.61 -0.31c0,0 -1.39,-2.32 -2.31,-3.12 -0.92,-0.81 -5.66,-3.08 -5.66,-3.08 0,0 -0.69,0.83 0,1.66 0.31,0.38 2.56,1.64 2.56,1.64 0.26,0.92 -0.54,1.8 -1.48,1.63 -1.39,-0.26 -3,-0.54 -3.22,-0.54 -0.24,0 -1.62,-1.32 -2.64,-2.31 -0.61,-0.6 -1.7,-0.03 -1.46,0.79 0.03,0.09 0.07,0.16 0.13,0.21 0,0 -1.47,-0.06 -0.16,1.91 0,0 -0.3,1.81 0.77,2.65 0,0 0.46,2.19 1.15,2.95 0.69,0.75 7.41,2.19 7.41,2.19l7 0.68 1.52 -6.95z"/>
  <path class="fil19" d="M246.25 126.8c0,0.04 -0.46,0.07 -1.2,0.03 -0.74,-0.05 -1.81,-0.15 -2.83,-0.74 -1.02,-0.62 -1.6,-1.53 -1.97,-2.16 -0.37,-0.65 -0.55,-1.07 -0.51,-1.09 0.04,-0.03 0.29,0.36 0.7,0.97 0.41,0.59 1,1.45 1.94,2.01 0.94,0.55 1.97,0.69 2.69,0.79 0.72,0.09 1.18,0.14 1.18,0.19z"/>
  <path class="fil19" d="M245.56 128.36c0,0.04 -0.42,0.13 -1.1,0.08 -0.34,-0.02 -0.75,-0.07 -1.19,-0.17 -0.43,-0.11 -0.93,-0.23 -1.38,-0.56 -0.43,-0.33 -0.75,-0.72 -1.03,-1.06 -0.26,-0.32 -0.51,-0.63 -0.74,-0.92 -0.42,-0.53 -0.66,-0.87 -0.63,-0.9 0.04,-0.03 0.34,0.26 0.79,0.75 0.23,0.25 0.5,0.55 0.79,0.88 0.3,0.33 0.62,0.7 1,1 0.38,0.28 0.86,0.42 1.27,0.53 0.42,0.11 0.81,0.19 1.14,0.24 0.66,0.1 1.07,0.08 1.08,0.13z"/>
  <path class="fil19" d="M244.61 130.09c-0.02,0.12 -1.22,-0.13 -2.64,-0.53 -0.24,-0.05 -0.38,-0.2 -0.52,-0.31 -0.14,-0.12 -0.26,-0.25 -0.37,-0.37 -0.21,-0.25 -0.39,-0.49 -0.52,-0.7 -0.26,-0.43 -0.33,-0.74 -0.29,-0.75 0.04,-0.02 0.18,0.24 0.47,0.62 0.15,0.19 0.33,0.41 0.55,0.63 0.11,0.12 0.23,0.23 0.36,0.34 0.13,0.1 0.26,0.22 0.39,0.24 0.73,0.2 1.37,0.4 1.83,0.55 0.46,0.16 0.74,0.25 0.74,0.28z"/>
 </g>
</svg>
