<svg id="visual" viewBox="0 0 960 540" width="960" height="540" xmlns="http://www.w3.org/2000/svg" xmlns:xlink="http://www.w3.org/1999/xlink" version="1.1"><g stroke-width="1" stroke-linejoin="bevel"><path d="M526.3 307L564.3 350L611 251Z" fill="#1d4e6b" stroke="#1d4e6b"></path><path d="M564.3 350L675 349L611 251Z" fill="#19435d" stroke="#19435d"></path><path d="M551.3 463L606 451L564.3 350Z" fill="#00101c" stroke="#00101c"></path><path d="M564.3 350L606 451L675 349Z" fill="#19435d" stroke="#19435d"></path><path d="M393.7 261L426.7 328L526.3 307Z" fill="#277297" stroke="#277297"></path><path d="M526.3 307L426.7 328L564.3 350Z" fill="#19435d" stroke="#19435d"></path><path d="M706.7 180L650 153L611 251Z" fill="#15384f" stroke="#15384f"></path><path d="M611 251L503.3 143L526.3 307Z" fill="#1d4e6b" stroke="#1d4e6b"></path><path d="M426.7 328L551.3 463L564.3 350Z" fill="#297ea6" stroke="#297ea6"></path><path d="M748.7 246L706.7 180L611 251Z" fill="#277297" stroke="#277297"></path><path d="M650 153L503.3 143L611 251Z" fill="#277297" stroke="#277297"></path><path d="M675 349L748.7 246L611 251Z" fill="#112e42" stroke="#112e42"></path><path d="M751.7 366L748.7 246L675 349Z" fill="#297ea6" stroke="#297ea6"></path><path d="M744.7 417L751.7 366L675 349Z" fill="#112e42" stroke="#112e42"></path><path d="M503.3 143L393.7 261L526.3 307Z" fill="#1d4e6b" stroke="#1d4e6b"></path><path d="M650 153L512.3 118L503.3 143Z" fill="#112e42" stroke="#112e42"></path><path d="M503.3 143L446.7 141L393.7 261Z" fill="#1d4e6b" stroke="#1d4e6b"></path><path d="M606 451L744.7 417L675 349Z" fill="#081a28" stroke="#081a28"></path><path d="M453.7 108L446.7 141L503.3 143Z" fill="#205a7a" stroke="#205a7a"></path><path d="M782.7 120L602 83L650 153Z" fill="#112e42" stroke="#112e42"></path><path d="M650 153L602 83L512.3 118Z" fill="#19435d" stroke="#19435d"></path><path d="M512.3 118L453.7 108L503.3 143Z" fill="#19435d" stroke="#19435d"></path><path d="M505.3 0L453.7 108L512.3 118Z" fill="#19435d" stroke="#19435d"></path><path d="M446.7 141L340 214L393.7 261Z" fill="#15384f" stroke="#15384f"></path><path d="M551.3 463L642 540L606 451Z" fill="#246688" stroke="#246688"></path><path d="M606 451L642 540L744.7 417Z" fill="#00101c" stroke="#00101c"></path><path d="M292 96L340 214L446.7 141Z" fill="#246688" stroke="#246688"></path><path d="M288 362L390.7 467L426.7 328Z" fill="#19435d" stroke="#19435d"></path><path d="M426.7 328L390.7 467L551.3 463Z" fill="#112e42" stroke="#112e42"></path><path d="M551.3 463L499.3 540L642 540Z" fill="#205a7a" stroke="#205a7a"></path><path d="M313 297L426.7 328L393.7 261Z" fill="#112e42" stroke="#112e42"></path><path d="M390.7 467L499.3 540L551.3 463Z" fill="#19435d" stroke="#19435d"></path><path d="M340 214L313 297L393.7 261Z" fill="#19435d" stroke="#19435d"></path><path d="M822.3 167L782.7 120L706.7 180Z" fill="#1d4e6b" stroke="#1d4e6b"></path><path d="M706.7 180L782.7 120L650 153Z" fill="#277297" stroke="#277297"></path><path d="M822.3 167L706.7 180L748.7 246Z" fill="#246688" stroke="#246688"></path><path d="M882.3 370L854.3 283L751.7 366Z" fill="#081a28" stroke="#081a28"></path><path d="M751.7 366L854.3 283L748.7 246Z" fill="#00101c" stroke="#00101c"></path><path d="M854.3 283L822.3 167L748.7 246Z" fill="#19435d" stroke="#19435d"></path><path d="M320 540L416.7 540L390.7 467Z" fill="#0c2435" stroke="#0c2435"></path><path d="M390.7 467L416.7 540L499.3 540Z" fill="#297ea6" stroke="#297ea6"></path><path d="M642 540L751.7 540L744.7 417Z" fill="#00101c" stroke="#00101c"></path><path d="M744.7 417L882.3 370L751.7 366Z" fill="#112e42" stroke="#112e42"></path><path d="M773.7 0L616 0L602 83Z" fill="#297ea6" stroke="#297ea6"></path><path d="M602 83L505.3 0L512.3 118Z" fill="#205a7a" stroke="#205a7a"></path><path d="M213.3 302L288 362L313 297Z" fill="#00101c" stroke="#00101c"></path><path d="M313 297L288 362L426.7 328Z" fill="#297ea6" stroke="#297ea6"></path><path d="M616 0L505.3 0L602 83Z" fill="#0c2435" stroke="#0c2435"></path><path d="M453.7 108L292 96L446.7 141Z" fill="#277297" stroke="#277297"></path><path d="M288 362L319 459L390.7 467Z" fill="#277297" stroke="#277297"></path><path d="M866.3 472L882.3 370L744.7 417Z" fill="#15384f" stroke="#15384f"></path><path d="M960 177L877.3 126L822.3 167Z" fill="#205a7a" stroke="#205a7a"></path><path d="M505.3 0L438.7 0L453.7 108Z" fill="#112e42" stroke="#112e42"></path><path d="M751.7 540L866.3 472L744.7 417Z" fill="#205a7a" stroke="#205a7a"></path><path d="M822.3 167L877.3 126L782.7 120Z" fill="#205a7a" stroke="#205a7a"></path><path d="M782.7 120L773.7 0L602 83Z" fill="#15384f" stroke="#15384f"></path><path d="M960 177L822.3 167L854.3 283Z" fill="#205a7a" stroke="#205a7a"></path><path d="M332 0L292 96L453.7 108Z" fill="#277297" stroke="#277297"></path><path d="M340 214L213.3 302L313 297Z" fill="#277297" stroke="#277297"></path><path d="M830.3 0L773.7 0L782.7 120Z" fill="#246688" stroke="#246688"></path><path d="M319 459L320 540L390.7 467Z" fill="#277297" stroke="#277297"></path><path d="M233.3 540L320 540L319 459Z" fill="#246688" stroke="#246688"></path><path d="M182.3 169L213.3 302L340 214Z" fill="#081a28" stroke="#081a28"></path><path d="M288 362L177.3 423L319 459Z" fill="#19435d" stroke="#19435d"></path><path d="M751.7 540L859.3 540L866.3 472Z" fill="#1d4e6b" stroke="#1d4e6b"></path><path d="M960 371L960 267L882.3 370Z" fill="#205a7a" stroke="#205a7a"></path><path d="M201.3 0L245.3 123L292 96Z" fill="#00101c" stroke="#00101c"></path><path d="M292 96L245.3 123L340 214Z" fill="#0c2435" stroke="#0c2435"></path><path d="M960 371L882.3 370L960 425Z" fill="#205a7a" stroke="#205a7a"></path><path d="M882.3 370L960 267L854.3 283Z" fill="#297ea6" stroke="#297ea6"></path><path d="M960 425L882.3 370L866.3 472Z" fill="#081a28" stroke="#081a28"></path><path d="M438.7 0L332 0L453.7 108Z" fill="#15384f" stroke="#15384f"></path><path d="M960 0L830.3 0L877.3 126Z" fill="#15384f" stroke="#15384f"></path><path d="M877.3 126L830.3 0L782.7 120Z" fill="#112e42" stroke="#112e42"></path><path d="M960 267L960 177L854.3 283Z" fill="#19435d" stroke="#19435d"></path><path d="M93.7 267L185.3 342L213.3 302Z" fill="#00101c" stroke="#00101c"></path><path d="M213.3 302L185.3 342L288 362Z" fill="#112e42" stroke="#112e42"></path><path d="M960 540L960 425L866.3 472Z" fill="#112e42" stroke="#112e42"></path><path d="M131.7 109L182.3 169L245.3 123Z" fill="#246688" stroke="#246688"></path><path d="M245.3 123L182.3 169L340 214Z" fill="#0c2435" stroke="#0c2435"></path><path d="M77.7 320L177.3 423L185.3 342Z" fill="#15384f" stroke="#15384f"></path><path d="M185.3 342L177.3 423L288 362Z" fill="#246688" stroke="#246688"></path><path d="M177.3 423L233.3 540L319 459Z" fill="#15384f" stroke="#15384f"></path><path d="M960 177L960 97L877.3 126Z" fill="#0c2435" stroke="#0c2435"></path><path d="M859.3 540L960 540L866.3 472Z" fill="#0c2435" stroke="#0c2435"></path><path d="M960 97L960 0L877.3 126Z" fill="#081a28" stroke="#081a28"></path><path d="M332 0L201.3 0L292 96Z" fill="#246688" stroke="#246688"></path><path d="M201.3 0L131.7 109L245.3 123Z" fill="#0c2435" stroke="#0c2435"></path><path d="M182.3 169L93.7 267L213.3 302Z" fill="#00101c" stroke="#00101c"></path><path d="M70.7 189L93.7 267L182.3 169Z" fill="#0c2435" stroke="#0c2435"></path><path d="M177.3 423L141.7 540L233.3 540Z" fill="#297ea6" stroke="#297ea6"></path><path d="M101.7 487L141.7 540L177.3 423Z" fill="#297ea6" stroke="#297ea6"></path><path d="M93.7 267L77.7 320L185.3 342Z" fill="#246688" stroke="#246688"></path><path d="M0 358L77.7 320L0 232Z" fill="#00101c" stroke="#00101c"></path><path d="M77.7 320L101.7 487L177.3 423Z" fill="#1d4e6b" stroke="#1d4e6b"></path><path d="M0 158L70.7 189L131.7 109Z" fill="#297ea6" stroke="#297ea6"></path><path d="M131.7 109L70.7 189L182.3 169Z" fill="#297ea6" stroke="#297ea6"></path><path d="M201.3 0L143.7 0L131.7 109Z" fill="#277297" stroke="#277297"></path><path d="M0 232L77.7 320L93.7 267Z" fill="#1d4e6b" stroke="#1d4e6b"></path><path d="M77.7 320L0 358L101.7 487Z" fill="#15384f" stroke="#15384f"></path><path d="M101.7 487L0 540L141.7 540Z" fill="#246688" stroke="#246688"></path><path d="M0 232L93.7 267L70.7 189Z" fill="#277297" stroke="#277297"></path><path d="M0 158L0 232L70.7 189Z" fill="#00101c" stroke="#00101c"></path><path d="M0 72L0 158L131.7 109Z" fill="#19435d" stroke="#19435d"></path><path d="M0 358L0 462L101.7 487Z" fill="#19435d" stroke="#19435d"></path><path d="M143.7 0L0 72L131.7 109Z" fill="#205a7a" stroke="#205a7a"></path><path d="M0 462L0 540L101.7 487Z" fill="#15384f" stroke="#15384f"></path><path d="M143.7 0L0 0L0 72Z" fill="#112e42" stroke="#112e42"></path></g></svg>