<svg id="visual" viewBox="0 0 900 600" width="900" height="600" xmlns="http://www.w3.org/2000/svg" xmlns:xlink="http://www.w3.org/1999/xlink" version="1.1"><path d="M0 115L82 235L164 217L245 139L327 97L409 229L491 139L573 187L655 205L736 241L818 181L900 169L900 0L818 0L736 0L655 0L573 0L491 0L409 0L327 0L245 0L164 0L82 0L0 0Z" fill="#00cc8e"></path><path d="M0 217L82 301L164 307L245 211L327 187L409 301L491 199L573 247L655 265L736 313L818 217L900 211L900 167L818 179L736 239L655 203L573 185L491 137L409 227L327 95L245 137L164 215L82 233L0 113Z" fill="#00b98a"></path><path d="M0 463L82 457L164 385L245 361L327 445L409 481L491 367L573 469L655 475L736 481L818 409L900 451L900 209L818 215L736 311L655 263L573 245L491 197L409 299L327 185L245 209L164 305L82 299L0 215Z" fill="#00a784"></path><path d="M0 553L82 511L164 463L245 481L327 535L409 529L491 457L573 511L655 517L736 541L818 493L900 541L900 449L818 407L736 479L655 473L573 467L491 365L409 479L327 443L245 359L164 383L82 455L0 461Z" fill="#00957c"></path><path d="M0 601L82 601L164 601L245 601L327 601L409 601L491 601L573 601L655 601L736 601L818 601L900 601L900 539L818 491L736 539L655 515L573 509L491 455L409 527L327 533L245 479L164 461L82 509L0 551Z" fill="#038373"></path></svg>